<svg width="25" height="25" viewBox="0 0 25 25" fill="none" xmlns="http://www.w3.org/2000/svg">
<path d="M18.405 8.46521C18.405 6.87391 17.7728 5.34779 16.6476 4.22257C15.5224 3.09735 13.9963 2.46521 12.405 2.46521C10.8137 2.46521 9.28755 3.09735 8.16233 4.22257C7.03711 5.34779 6.40497 6.87391 6.40497 8.46521C6.40497 15.4652 3.40497 17.4652 3.40497 17.4652H21.405C21.405 17.4652 18.405 15.4652 18.405 8.46521Z" fill="#E3E3E3"/>
<path d="M14.135 21.4652C13.9591 21.7683 13.7068 22.0199 13.4032 22.1947C13.0996 22.3696 12.7553 22.4617 12.405 22.4617C12.0546 22.4617 11.7103 22.3696 11.4067 22.1947C11.1031 22.0199 10.8508 21.7683 10.675 21.4652" stroke="#E3E3E3" stroke-width="2" stroke-linecap="round" stroke-linejoin="round"/>
<circle cx="18.1064" cy="5.16355" r="3.97196" fill="#BB4430"/>
</svg>
