<svg width="369" height="255" viewBox="0 0 369 255" fill="none" xmlns="http://www.w3.org/2000/svg">
<g filter="url(#filter0_ddd_1_208)">
<g filter="url(#filter1_ddd_1_208)">
<rect x="24.4405" y="8.43097" width="320.425" height="206.172" rx="26" fill="url(#paint0_linear_1_208)"/>
<mask id="mask0_1_208" style="mask-type:alpha" maskUnits="userSpaceOnUse" x="24" y="8" width="321" height="207">
<rect x="24.4405" y="8.43097" width="320.425" height="206.172" rx="26" fill="url(#paint1_linear_1_208)"/>
</mask>
<g mask="url(#mask0_1_208)">
<path d="M49.5606 170.166C49.6037 170.166 49.6408 170.183 49.6719 170.217L49.9733 170.547C49.7628 170.796 49.5056 170.988 49.2017 171.125C48.9003 171.261 48.5366 171.329 48.1107 171.329C47.7375 171.329 47.3989 171.265 47.0951 171.135C46.7936 171.006 46.5352 170.826 46.3199 170.593C46.1069 170.361 45.9418 170.084 45.8246 169.761C45.7074 169.438 45.6487 169.083 45.6487 168.695C45.6487 168.307 45.7098 167.952 45.8318 167.629C45.9562 167.306 46.1297 167.029 46.3522 166.796C46.5747 166.564 46.8403 166.384 47.1489 166.255C47.4599 166.125 47.8033 166.061 48.1789 166.061C48.545 166.061 48.8704 166.121 49.1551 166.24C49.4398 166.36 49.6874 166.519 49.898 166.718L49.6468 167.073C49.63 167.099 49.6085 167.121 49.5822 167.137C49.5582 167.154 49.5259 167.163 49.4853 167.163C49.4398 167.163 49.386 167.14 49.3238 167.094C49.2639 167.049 49.1838 166.999 49.0833 166.944C48.9852 166.886 48.8632 166.835 48.7172 166.789C48.5713 166.744 48.3895 166.721 48.1717 166.721C47.9157 166.721 47.6812 166.767 47.4683 166.857C47.2554 166.946 47.0711 167.075 46.9156 167.245C46.7625 167.413 46.6429 167.62 46.5567 167.866C46.473 168.11 46.4311 168.386 46.4311 168.695C46.4311 169.008 46.4754 169.287 46.5639 169.531C46.6524 169.775 46.7745 169.982 46.93 170.152C47.0855 170.322 47.2685 170.451 47.4791 170.54C47.6896 170.628 47.9169 170.672 48.161 170.672C48.3093 170.672 48.4421 170.664 48.5593 170.647C48.679 170.628 48.7878 170.601 48.8859 170.565C48.9864 170.529 49.0809 170.483 49.1694 170.428C49.258 170.371 49.3453 170.303 49.4314 170.224C49.4506 170.207 49.4709 170.194 49.4924 170.184C49.514 170.172 49.5367 170.166 49.5606 170.166ZM52.5574 169.653C52.2727 169.663 52.0311 169.686 51.8325 169.721C51.6339 169.755 51.4724 169.8 51.348 169.858C51.2236 169.915 51.1339 169.983 51.0788 170.062C51.0238 170.139 50.9963 170.225 50.9963 170.321C50.9963 170.412 51.0106 170.491 51.0394 170.558C51.0705 170.622 51.1111 170.676 51.1614 170.719C51.214 170.76 51.275 170.79 51.3444 170.809C51.4138 170.828 51.4892 170.838 51.5705 170.838C51.6782 170.838 51.7763 170.827 51.8648 170.805C51.9557 170.784 52.0406 170.754 52.1196 170.716C52.1986 170.675 52.2739 170.626 52.3457 170.568C52.4175 170.511 52.4881 170.445 52.5574 170.371V169.653ZM50.5046 168.135C50.708 167.941 50.9281 167.797 51.165 167.701C51.4042 167.605 51.6662 167.557 51.9509 167.557C52.1591 167.557 52.3433 167.592 52.5036 167.661C52.6639 167.728 52.7991 167.823 52.9092 167.945C53.0192 168.067 53.1018 168.213 53.1568 168.383C53.2142 168.553 53.2429 168.74 53.2429 168.946V171.272H52.9307C52.8613 171.272 52.8087 171.261 52.7728 171.239C52.7369 171.216 52.7082 171.172 52.6866 171.11L52.6113 170.791C52.518 170.877 52.4259 170.954 52.3349 171.021C52.244 171.085 52.1483 171.141 52.0478 171.189C51.9497 171.235 51.8445 171.269 51.732 171.293C51.6196 171.317 51.4951 171.329 51.3588 171.329C51.2152 171.329 51.08 171.31 50.9532 171.272C50.8288 171.231 50.7199 171.17 50.6266 171.089C50.5333 171.007 50.4592 170.906 50.4041 170.784C50.3515 170.662 50.3252 170.519 50.3252 170.357C50.3252 170.213 50.3634 170.075 50.44 169.944C50.519 169.81 50.6458 169.69 50.8204 169.585C50.9975 169.48 51.2272 169.394 51.5095 169.327C51.7942 169.26 52.1435 169.221 52.5574 169.212V168.946C52.5574 168.671 52.4988 168.465 52.3816 168.329C52.2644 168.193 52.0921 168.124 51.8648 168.124C51.7117 168.124 51.5825 168.143 51.4772 168.182C51.3743 168.22 51.2846 168.263 51.208 168.311C51.1339 168.356 51.0681 168.398 51.0106 168.437C50.9556 168.475 50.8982 168.494 50.8384 168.494C50.7905 168.494 50.7487 168.481 50.7128 168.455C50.6793 168.428 50.6518 168.397 50.6302 168.361L50.5046 168.135ZM54.8401 168.325C54.9574 168.086 55.0985 167.898 55.2636 167.762C55.4287 167.625 55.6273 167.557 55.8594 167.557C55.9383 167.557 56.0125 167.567 56.0819 167.586C56.1537 167.603 56.2159 167.629 56.2685 167.665L56.2219 168.193C56.2051 168.257 56.1656 168.289 56.1034 168.289C56.0699 168.289 56.0197 168.283 55.9527 168.271C55.8857 168.257 55.8139 168.25 55.7374 168.25C55.6249 168.25 55.5256 168.267 55.4395 168.3C55.3534 168.331 55.2756 168.379 55.2062 168.444C55.1392 168.506 55.0794 168.584 55.0268 168.677C54.9741 168.768 54.9251 168.872 54.8796 168.989V171.272H54.1798V167.625H54.5817C54.6583 167.625 54.7097 167.64 54.7361 167.669C54.7648 167.695 54.7851 167.743 54.7971 167.812L54.8401 168.325ZM59.0329 168.508C58.9181 168.358 58.7936 168.252 58.6597 168.193C58.5281 168.133 58.3797 168.103 58.2146 168.103C57.894 168.103 57.6452 168.219 57.4682 168.451C57.2935 168.681 57.2062 169.017 57.2062 169.459C57.2062 169.691 57.2253 169.89 57.2636 170.055C57.3043 170.218 57.3617 170.352 57.4359 170.457C57.5124 170.56 57.6057 170.637 57.7158 170.687C57.8258 170.735 57.9503 170.759 58.089 170.759C58.2924 170.759 58.4683 170.713 58.6166 170.622C58.7649 170.531 58.9037 170.403 59.0329 170.238V168.508ZM59.7363 165.975V171.272H59.3128C59.2147 171.272 59.1537 171.225 59.1298 171.132L59.0688 170.712C58.9133 170.896 58.7362 171.044 58.5376 171.157C58.3415 171.267 58.1142 171.322 57.8558 171.322C57.6476 171.322 57.4586 171.281 57.2887 171.2C57.1212 171.119 56.9777 171 56.858 170.845C56.7384 170.687 56.6463 170.492 56.5817 170.26C56.5171 170.028 56.4848 169.761 56.4848 169.459C56.4848 169.189 56.5207 168.938 56.5925 168.706C56.6642 168.474 56.7683 168.273 56.9047 168.103C57.0411 167.933 57.2062 167.8 57.4 167.704C57.5938 167.606 57.8127 167.557 58.0567 167.557C58.2769 167.557 58.4635 167.593 58.6166 167.665C58.7721 167.737 58.9109 167.838 59.0329 167.97V165.975H59.7363ZM63.228 168.088C63.3811 167.933 63.5498 167.807 63.734 167.712C63.9206 167.616 64.1348 167.568 64.3764 167.568C64.5774 167.568 64.7532 167.602 64.904 167.669C65.0571 167.736 65.1851 167.83 65.288 167.952C65.3909 168.072 65.4686 168.216 65.5213 168.386C65.5739 168.556 65.6002 168.744 65.6002 168.95V171.272H64.8968V168.95C64.8968 168.689 64.837 168.487 64.7174 168.343C64.5977 168.197 64.4147 168.124 64.1683 168.124C63.9888 168.124 63.8201 168.167 63.6622 168.254C63.5067 168.337 63.362 168.452 63.228 168.598V171.272H62.5281V165.975H63.228V168.088ZM68.0986 167.568C68.3666 167.568 68.6082 167.612 68.8235 167.701C69.0413 167.787 69.2255 167.913 69.3762 168.078C69.5294 168.24 69.6466 168.438 69.7279 168.67C69.8093 168.9 69.85 169.158 69.85 169.445C69.85 169.732 69.8093 169.992 69.7279 170.224C69.6466 170.456 69.5294 170.653 69.3762 170.816C69.2255 170.979 69.0413 171.104 68.8235 171.193C68.6082 171.279 68.3666 171.322 68.0986 171.322C67.8282 171.322 67.5842 171.279 67.3665 171.193C67.1511 171.104 66.9669 170.979 66.8138 170.816C66.6606 170.653 66.5422 170.456 66.4585 170.224C66.3771 169.992 66.3364 169.732 66.3364 169.445C66.3364 169.158 66.3771 168.9 66.4585 168.67C66.5422 168.438 66.6606 168.24 66.8138 168.078C66.9669 167.913 67.1511 167.787 67.3665 167.701C67.5842 167.612 67.8282 167.568 68.0986 167.568ZM68.0986 170.777C68.4431 170.777 68.7003 170.66 68.8702 170.428C69.0401 170.196 69.125 169.87 69.125 169.449C69.125 169.028 69.0401 168.701 68.8702 168.469C68.7003 168.234 68.4431 168.117 68.0986 168.117C67.7493 168.117 67.4885 168.234 67.3162 168.469C67.1463 168.701 67.0614 169.028 67.0614 169.449C67.0614 169.87 67.1463 170.196 67.3162 170.428C67.4885 170.66 67.7493 170.777 68.0986 170.777ZM71.3489 165.975V171.272H70.6455V165.975H71.3489ZM74.6992 168.508C74.5844 168.358 74.4599 168.252 74.326 168.193C74.1944 168.133 74.046 168.103 73.8809 168.103C73.5603 168.103 73.3115 168.219 73.1345 168.451C72.9598 168.681 72.8725 169.017 72.8725 169.459C72.8725 169.691 72.8916 169.89 72.9299 170.055C72.9706 170.218 73.028 170.352 73.1022 170.457C73.1787 170.56 73.272 170.637 73.3821 170.687C73.4921 170.735 73.6166 170.759 73.7553 170.759C73.9587 170.759 74.1346 170.713 74.2829 170.622C74.4312 170.531 74.57 170.403 74.6992 170.238V168.508ZM75.4026 165.975V171.272H74.9791C74.881 171.272 74.82 171.225 74.7961 171.132L74.7351 170.712C74.5796 170.896 74.4025 171.044 74.2039 171.157C74.0077 171.267 73.7805 171.322 73.5221 171.322C73.3139 171.322 73.1249 171.281 72.955 171.2C72.7875 171.119 72.644 171 72.5243 170.845C72.4047 170.687 72.3126 170.492 72.248 170.26C72.1834 170.028 72.1511 169.761 72.1511 169.459C72.1511 169.189 72.187 168.938 72.2588 168.706C72.3305 168.474 72.4346 168.273 72.571 168.103C72.7074 167.933 72.8725 167.8 73.0663 167.704C73.2601 167.606 73.479 167.557 73.723 167.557C73.9431 167.557 74.1298 167.593 74.2829 167.665C74.4384 167.737 74.5772 167.838 74.6992 167.97V165.975H75.4026ZM78.7943 169.043C78.7943 168.904 78.7739 168.776 78.7333 168.659C78.695 168.542 78.6376 168.44 78.561 168.354C78.4844 168.268 78.3911 168.201 78.2811 168.153C78.171 168.105 78.0442 168.081 77.9007 168.081C77.6064 168.081 77.3743 168.166 77.2044 168.336C77.0369 168.506 76.9305 168.742 76.885 169.043H78.7943ZM79.3721 170.751C79.286 170.852 79.1867 170.939 79.0742 171.013C78.9618 171.085 78.8421 171.144 78.7153 171.189C78.5885 171.235 78.4569 171.268 78.3206 171.29C78.1866 171.311 78.0538 171.322 77.9222 171.322C77.671 171.322 77.4377 171.28 77.2224 171.196C77.0094 171.11 76.824 170.986 76.6661 170.823C76.5106 170.658 76.3885 170.455 76.3 170.213C76.2139 169.969 76.1708 169.689 76.1708 169.373C76.1708 169.12 76.2103 168.884 76.2892 168.666C76.3682 168.446 76.4807 168.255 76.6266 168.092C76.7749 167.929 76.9556 167.801 77.1685 167.708C77.3815 167.615 77.6207 167.568 77.8863 167.568C78.1088 167.568 78.3134 167.605 78.5 167.679C78.689 167.751 78.8517 167.856 78.9881 167.995C79.1245 168.134 79.2309 168.305 79.3075 168.508C79.3865 168.712 79.4259 168.944 79.4259 169.205C79.4259 169.312 79.414 169.385 79.39 169.424C79.3661 169.459 79.3219 169.477 79.2573 169.477H76.8671C76.8742 169.695 76.9053 169.885 76.9604 170.048C77.0154 170.208 77.0908 170.342 77.1865 170.45C77.2846 170.558 77.4006 170.638 77.5346 170.69C77.6686 170.743 77.8181 170.769 77.9832 170.769C78.1387 170.769 78.2727 170.751 78.3852 170.716C78.5 170.68 78.5981 170.641 78.6794 170.601C78.7632 170.558 78.8326 170.518 78.8876 170.482C78.945 170.446 78.9953 170.428 79.0383 170.428C79.0958 170.428 79.14 170.45 79.1711 170.493L79.3721 170.751ZM80.8385 168.325C80.9557 168.086 81.0969 167.898 81.262 167.762C81.4271 167.625 81.6256 167.557 81.8577 167.557C81.9367 167.557 82.0109 167.567 82.0802 167.586C82.152 167.603 82.2142 167.629 82.2669 167.665L82.2202 168.193C82.2035 168.257 82.164 168.289 82.1018 168.289C82.0683 168.289 82.018 168.283 81.951 168.271C81.884 168.257 81.8123 168.25 81.7357 168.25C81.6233 168.25 81.524 168.267 81.4378 168.3C81.3517 168.331 81.2739 168.379 81.2046 168.444C81.1376 168.506 81.0777 168.584 81.0251 168.677C80.9725 168.768 80.9234 168.872 80.878 168.989V171.272H80.1781V167.625H80.5801C80.6567 167.625 80.7081 167.64 80.7344 167.669C80.7631 167.695 80.7835 167.743 80.7954 167.812L80.8385 168.325Z" fill="white"/>
<path d="M237.788 188.244C237.788 217.101 214.396 240.494 185.539 240.494C156.683 240.494 133.29 217.101 133.29 188.244C133.29 173.03 139.793 159.335 150.17 149.786C159.476 141.224 171.897 135.995 185.539 135.995C214.396 135.995 237.788 159.388 237.788 188.244Z" fill="white" fill-opacity="0.12"/>
<path d="M237.788 188.244C237.788 217.101 214.396 240.494 185.539 240.494H336.334C307.477 240.494 284.085 217.101 284.085 188.244C284.085 184.558 284.466 180.962 285.192 177.491C282.732 177.847 280.216 178.031 277.657 178.031C252.296 178.031 231.155 159.962 226.405 135.995H192.323H185.539C214.396 135.995 237.788 159.388 237.788 188.244Z" fill="white" fill-opacity="0.12"/>
<path d="M226.405 135.995C225.751 132.692 225.407 129.277 225.407 125.782C225.407 121.191 226 116.739 227.111 112.497C222.745 120.33 209.675 135.995 192.323 135.995H226.405Z" fill="white" fill-opacity="0.12"/>
<path fill-rule="evenodd" clip-rule="evenodd" d="M336.334 240.494C365.19 240.494 388.583 217.101 388.583 188.244C388.583 159.388 365.19 135.995 336.334 135.995C333.775 135.995 331.259 136.179 328.798 136.535C324.344 157.823 306.934 174.351 285.192 177.491C284.466 180.962 284.085 184.558 284.085 188.244C284.085 217.101 307.477 240.494 336.334 240.494Z" fill="white" fill-opacity="0.12"/>
<path d="M328.798 136.535C324.344 157.823 306.934 174.351 285.192 177.491C289.646 156.203 307.057 139.675 328.798 136.535Z" fill="white" fill-opacity="0.12"/>
<path d="M329.906 125.782C329.906 96.9252 306.513 73.5324 277.657 73.5324C253.391 73.5324 232.989 90.0743 227.111 112.497C226 116.739 225.407 121.191 225.407 125.782C225.407 129.277 225.751 132.692 226.405 135.995C231.155 159.962 252.296 178.031 277.657 178.031C280.216 178.031 282.732 177.847 285.192 177.491C289.646 156.203 307.057 139.675 328.798 136.535C329.524 133.064 329.906 129.468 329.906 125.782Z" fill="white" fill-opacity="0.12"/>
</g>
<path d="M50.3165 36.688C51.2655 36.688 52.0303 36.8387 52.6109 37.1402C53.1915 37.4305 53.4818 37.8212 53.4818 38.3125C53.4818 38.5581 53.4092 38.7758 53.2641 38.9656C53.1189 39.1443 52.9291 39.2336 52.6946 39.2336C52.516 39.2336 52.3709 39.2113 52.2592 39.1666C52.1476 39.1108 52.0359 39.0438 51.9243 38.9656C51.8238 38.8763 51.7233 38.8037 51.6228 38.7479C51.5112 38.6921 51.3437 38.6419 51.1204 38.5972C50.9082 38.5525 50.7352 38.5302 50.6012 38.5302C49.7638 38.5302 49.1051 38.7926 48.625 39.3173C48.1561 39.8309 47.9216 40.5064 47.9216 41.3438C47.9216 42.1477 48.1617 42.8176 48.6417 43.3535C49.1218 43.8782 49.7359 44.1406 50.484 44.1406C51.0311 44.1406 51.4386 44.0736 51.7065 43.9396C51.7735 43.9062 51.8629 43.8503 51.9745 43.7722C52.0973 43.6829 52.209 43.6159 52.3095 43.5712C52.4099 43.5265 52.5328 43.5042 52.6779 43.5042C52.957 43.5042 53.1747 43.5935 53.331 43.7722C53.4985 43.9508 53.5823 44.1797 53.5823 44.4588C53.5823 44.7268 53.426 44.978 53.1133 45.2125C52.8007 45.4469 52.3876 45.6367 51.874 45.7819C51.3604 45.9159 50.8133 45.9828 50.2328 45.9828C49.3731 45.9828 48.6138 45.7819 47.9551 45.3799C47.3075 44.978 46.8051 44.4253 46.4478 43.7219C46.0905 43.0074 45.9119 42.2147 45.9119 41.3438C45.9119 40.4394 46.0961 39.6355 46.4646 38.9321C46.8442 38.2288 47.3689 37.6817 48.0388 37.2909C48.7087 36.889 49.468 36.688 50.3165 36.688ZM57.2106 44.7938C57.2106 45.0841 57.1101 45.3297 56.9091 45.5307C56.7193 45.7205 56.4793 45.8154 56.189 45.8154C55.9099 45.8154 55.6754 45.7205 55.4856 45.5307C55.2958 45.3297 55.2009 45.0841 55.2009 44.7938V34.4438C55.2009 34.1535 55.2958 33.9135 55.4856 33.7237C55.6866 33.5227 55.9322 33.4222 56.2225 33.4222C56.5016 33.4222 56.7361 33.5227 56.9259 33.7237C57.1157 33.9135 57.2106 34.1535 57.2106 34.4438V44.7938ZM67.992 41.3438C67.992 42.237 67.7911 43.0409 67.3891 43.7554C66.9872 44.4588 66.4345 45.0059 65.7311 45.3967C65.0389 45.7875 64.2741 45.9828 63.4367 45.9828C62.5882 45.9828 61.8178 45.7875 61.1256 45.3967C60.4333 45.0059 59.8863 44.4588 59.4843 43.7554C59.0824 43.0409 58.8814 42.237 58.8814 41.3438C58.8814 40.4506 59.0824 39.6523 59.4843 38.9489C59.8863 38.2343 60.4333 37.6817 61.1256 37.2909C61.8178 36.889 62.5882 36.688 63.4367 36.688C64.2741 36.688 65.0389 36.889 65.7311 37.2909C66.4345 37.6817 66.9872 38.2343 67.3891 38.9489C67.7911 39.6523 67.992 40.4506 67.992 41.3438ZM65.9823 41.3438C65.9823 40.7967 65.8651 40.311 65.6306 39.8868C65.4073 39.4513 65.1003 39.1164 64.7095 38.8819C64.3299 38.6474 63.9057 38.5302 63.4367 38.5302C62.9678 38.5302 62.5379 38.6474 62.1472 38.8819C61.7676 39.1164 61.4605 39.4513 61.2261 39.8868C61.0028 40.311 60.8911 40.7967 60.8911 41.3438C60.8911 41.8909 61.0028 42.3765 61.2261 42.8008C61.4605 43.2251 61.7676 43.5545 62.1472 43.7889C62.5379 44.0234 62.9678 44.1406 63.4367 44.1406C63.9057 44.1406 64.3299 44.0234 64.7095 43.7889C65.1003 43.5545 65.4073 43.2251 65.6306 42.8008C65.8651 42.3765 65.9823 41.8909 65.9823 41.3438ZM76.3199 36.8555C76.6102 36.8555 76.8502 36.9559 77.04 37.1569C77.2298 37.3467 77.3247 37.5868 77.3247 37.8771V42.1309C77.3247 43.3367 76.9898 44.2802 76.3199 44.9612C75.6611 45.6423 74.7177 45.9828 73.4895 45.9828C72.2614 45.9828 71.318 45.6423 70.6592 44.9612C70.0005 44.2802 69.6711 43.3367 69.6711 42.1309V37.8771C69.6711 37.5868 69.766 37.3467 69.9558 37.1569C70.1456 36.9559 70.3857 36.8555 70.676 36.8555C70.9663 36.8555 71.2063 36.9559 71.3961 37.1569C71.5859 37.3467 71.6808 37.5868 71.6808 37.8771V42.1309C71.6808 42.812 71.8315 43.32 72.133 43.6549C72.4345 43.9787 72.8866 44.1406 73.4895 44.1406C74.1036 44.1406 74.5614 43.9787 74.8628 43.6549C75.1643 43.32 75.315 42.812 75.315 42.1309V37.8771C75.315 37.5868 75.4099 37.3467 75.5997 37.1569C75.7895 36.9559 76.0296 36.8555 76.3199 36.8555ZM86.7521 33.4222C87.0424 33.4222 87.2825 33.5171 87.4723 33.7069C87.6621 33.8967 87.757 34.1424 87.757 34.4438V44.7938C87.757 45.0841 87.6621 45.3297 87.4723 45.5307C87.2825 45.7205 87.0424 45.8154 86.7521 45.8154C86.4618 45.8154 86.2218 45.7205 86.032 45.5307C85.8533 45.3409 85.7584 45.1008 85.7473 44.8105C85.4681 45.1343 85.0885 45.4134 84.6084 45.6479C84.1395 45.8712 83.6427 45.9828 83.1179 45.9828C82.3475 45.9828 81.6497 45.7875 81.0245 45.3967C80.3992 44.9947 79.9024 44.4421 79.534 43.7387C79.1767 43.0353 78.998 42.237 78.998 41.3438C78.998 40.4506 79.1767 39.6523 79.534 38.9489C79.8912 38.2343 80.3769 37.6817 80.991 37.2909C81.6162 36.889 82.3029 36.688 83.0509 36.688C83.5868 36.688 84.0893 36.7885 84.5582 36.9894C85.0271 37.1792 85.4235 37.4249 85.7473 37.7263V34.4438C85.7473 34.1535 85.8422 33.9135 86.032 33.7237C86.2218 33.5227 86.4618 33.4222 86.7521 33.4222ZM83.3691 44.1406C84.0949 44.1406 84.6866 43.8782 85.1444 43.3535C85.6021 42.8176 85.831 42.1477 85.831 41.3438C85.831 40.5399 85.6021 39.87 85.1444 39.3341C84.6866 38.7982 84.0949 38.5302 83.3691 38.5302C82.6546 38.5302 82.0684 38.7982 81.6106 39.3341C81.1529 39.87 80.924 40.5399 80.924 41.3438C80.924 42.1477 81.1473 42.8176 81.5939 43.3535C82.0517 43.8782 82.6434 44.1406 83.3691 44.1406ZM93.8371 36.688C94.7861 36.688 95.5509 36.8387 96.1315 37.1402C96.7121 37.4305 97.0024 37.8212 97.0024 38.3125C97.0024 38.5581 96.9298 38.7758 96.7847 38.9656C96.6395 39.1443 96.4497 39.2336 96.2152 39.2336C96.0366 39.2336 95.8915 39.2113 95.7798 39.1666C95.6682 39.1108 95.5565 39.0438 95.4449 38.9656C95.3444 38.8763 95.2439 38.8037 95.1434 38.7479C95.0318 38.6921 94.8643 38.6419 94.641 38.5972C94.4288 38.5525 94.2558 38.5302 94.1218 38.5302C93.2844 38.5302 92.6257 38.7926 92.1456 39.3173C91.6767 39.8309 91.4422 40.5064 91.4422 41.3438C91.4422 42.1477 91.6823 42.8176 92.1623 43.3535C92.6424 43.8782 93.2565 44.1406 94.0046 44.1406C94.5517 44.1406 94.9592 44.0736 95.2271 43.9396C95.2941 43.9062 95.3835 43.8503 95.4951 43.7722C95.6179 43.6829 95.7296 43.6159 95.8301 43.5712C95.9305 43.5265 96.0534 43.5042 96.1985 43.5042C96.4776 43.5042 96.6953 43.5935 96.8516 43.7722C97.0191 43.9508 97.1029 44.1797 97.1029 44.4588C97.1029 44.7268 96.9466 44.978 96.6339 45.2125C96.3213 45.4469 95.9082 45.6367 95.3946 45.7819C94.881 45.9159 94.3339 45.9828 93.7534 45.9828C92.8937 45.9828 92.1344 45.7819 91.4757 45.3799C90.8281 44.978 90.3257 44.4253 89.9684 43.7219C89.6111 43.0074 89.4325 42.2147 89.4325 41.3438C89.4325 40.4394 89.6167 39.6355 89.9852 38.9321C90.3648 38.2288 90.8895 37.6817 91.5594 37.2909C92.2293 36.889 92.9886 36.688 93.8371 36.688ZM105.806 36.688C106.096 36.688 106.336 36.7829 106.526 36.9727C106.716 37.1625 106.811 37.4081 106.811 37.7096V44.7938C106.811 45.0841 106.716 45.3297 106.526 45.5307C106.336 45.7205 106.096 45.8154 105.806 45.8154C105.515 45.8154 105.275 45.7205 105.086 45.5307C104.907 45.3409 104.812 45.1008 104.801 44.8105C104.522 45.1343 104.142 45.4134 103.662 45.6479C103.193 45.8712 102.696 45.9828 102.171 45.9828C101.401 45.9828 100.703 45.7875 100.078 45.3967C99.4528 44.9947 98.9559 44.4421 98.5875 43.7387C98.2302 43.0353 98.0516 42.237 98.0516 41.3438C98.0516 40.4506 98.2302 39.6523 98.5875 38.9489C98.9448 38.2343 99.4305 37.6817 100.045 37.2909C100.67 36.889 101.356 36.688 102.104 36.688C102.64 36.688 103.143 36.7885 103.612 36.9894C104.081 37.1792 104.477 37.4249 104.801 37.7263V37.7096C104.801 37.4193 104.896 37.1792 105.086 36.9894C105.275 36.7885 105.515 36.688 105.806 36.688ZM102.423 44.1406C103.148 44.1406 103.74 43.8782 104.198 43.3535C104.656 42.8176 104.885 42.1477 104.885 41.3438C104.885 40.5399 104.656 39.87 104.198 39.3341C103.74 38.7982 103.148 38.5302 102.423 38.5302C101.708 38.5302 101.122 38.7982 100.664 39.3341C100.206 39.87 99.9775 40.5399 99.9775 41.3438C99.9775 42.1477 100.201 42.8176 100.647 43.3535C101.105 43.8782 101.697 44.1406 102.423 44.1406ZM108.469 44.4253C108.369 44.2913 108.319 44.1239 108.319 43.9229C108.319 43.6326 108.464 43.387 108.754 43.186C108.91 43.0855 109.072 43.0353 109.24 43.0353C109.474 43.0353 109.697 43.1414 109.91 43.3535C110.245 43.6996 110.591 43.9564 110.948 44.1239C111.316 44.2913 111.757 44.3751 112.271 44.3751C113.142 44.3416 113.577 44.0122 113.577 43.387C113.577 43.0632 113.427 42.8176 113.125 42.6501C112.835 42.4826 112.377 42.3151 111.752 42.1477C111.104 41.969 110.574 41.7904 110.161 41.6117C109.759 41.4331 109.407 41.1651 109.106 40.8079C108.815 40.4394 108.67 39.9482 108.67 39.3341C108.67 38.7982 108.821 38.3348 109.122 37.944C109.435 37.5421 109.837 37.2351 110.328 37.0229C110.831 36.7996 111.361 36.688 111.919 36.688C112.489 36.688 113.058 36.794 113.628 37.0062C114.197 37.2183 114.644 37.5309 114.967 37.944C115.112 38.1227 115.185 38.3237 115.185 38.547C115.185 38.8037 115.079 39.0159 114.867 39.1834C114.711 39.3062 114.532 39.3676 114.331 39.3676C114.085 39.3676 113.884 39.2894 113.728 39.1331C113.527 38.8875 113.265 38.6921 112.941 38.547C112.628 38.4018 112.271 38.3292 111.869 38.3292C111.021 38.3292 110.596 38.6363 110.596 39.2503C110.596 39.496 110.674 39.6969 110.831 39.8533C110.987 39.9984 111.182 40.1156 111.417 40.205C111.663 40.2831 112.003 40.3836 112.438 40.5064C113.041 40.6739 113.544 40.8469 113.946 41.0256C114.348 41.2042 114.688 41.4778 114.967 41.8462C115.246 42.2147 115.386 42.7003 115.386 43.3032C115.386 43.8503 115.224 44.3304 114.9 44.7435C114.577 45.1455 114.158 45.4525 113.644 45.6646C113.142 45.8768 112.623 45.9828 112.087 45.9828C111.35 45.9828 110.663 45.86 110.027 45.6144C109.39 45.3688 108.871 44.9724 108.469 44.4253ZM121.774 36.688C122.879 36.688 123.644 37.0285 124.068 37.7096C124.493 38.3795 124.705 39.3118 124.705 40.5064V44.7938C124.705 45.0841 124.61 45.3297 124.42 45.5307C124.23 45.7205 123.99 45.8154 123.7 45.8154C123.41 45.8154 123.17 45.7205 122.98 45.5307C122.79 45.3297 122.695 45.0841 122.695 44.7938V40.5064C122.695 39.8923 122.572 39.4122 122.327 39.0661C122.092 38.7088 121.673 38.5302 121.07 38.5302C120.445 38.5302 119.954 38.72 119.597 39.0996C119.251 39.4681 119.078 39.937 119.078 40.5064V44.7938C119.078 45.0841 118.983 45.3297 118.793 45.5307C118.603 45.7205 118.363 45.8154 118.073 45.8154C117.782 45.8154 117.542 45.7205 117.353 45.5307C117.163 45.3297 117.068 45.0841 117.068 44.7938V34.4438C117.068 34.1535 117.163 33.9135 117.353 33.7237C117.542 33.5227 117.782 33.4222 118.073 33.4222C118.363 33.4222 118.603 33.5227 118.793 33.7237C118.983 33.9135 119.078 34.1535 119.078 34.4438V38.145C119.379 37.7431 119.759 37.4025 120.216 37.1234C120.685 36.8331 121.204 36.688 121.774 36.688Z" fill="white"/>
<path d="M47.8854 55.1385C48.0855 55.1385 48.2599 55.1142 48.4087 55.0655C48.5574 55.0141 48.6804 54.9425 48.7778 54.8505C48.8779 54.7559 48.9522 54.6423 49.0009 54.5098C49.0496 54.3746 49.0739 54.2245 49.0739 54.0595C49.0739 53.9027 49.0496 53.7607 49.0009 53.6336C48.9522 53.5065 48.8792 53.3983 48.7818 53.3091C48.6845 53.2198 48.5614 53.1522 48.4127 53.1062C48.264 53.0576 48.0882 53.0332 47.8854 53.0332H47.07V55.1385H47.8854ZM47.8854 52.1895C48.2775 52.1895 48.6169 52.2354 48.9035 52.3274C49.1902 52.4193 49.4268 52.5478 49.6134 52.7128C49.8 52.8777 49.9379 53.0751 50.0272 53.305C50.1191 53.5349 50.1651 53.7864 50.1651 54.0595C50.1651 54.3435 50.1178 54.6044 50.0231 54.8424C49.9285 55.0777 49.7865 55.2805 49.5972 55.4509C49.4079 55.6212 49.1699 55.7537 48.8833 55.8484C48.5993 55.9431 48.2667 55.9904 47.8854 55.9904H47.07V58.0551H45.9788V52.1895H47.8854ZM52.7745 54.9803C52.9801 54.9803 53.1586 54.9546 53.31 54.9032C53.4641 54.8519 53.5899 54.7816 53.6873 54.6923C53.7873 54.6004 53.8617 54.4922 53.9104 54.3678C53.959 54.2434 53.9834 54.1068 53.9834 53.9581C53.9834 53.6606 53.8847 53.4321 53.6873 53.2725C53.4925 53.113 53.1937 53.0332 52.7908 53.0332H52.0931V54.9803H52.7745ZM55.5816 58.0551H54.5959C54.4093 58.0551 54.2741 57.9821 54.1903 57.8361L52.9571 55.9579C52.9111 55.8876 52.8597 55.8376 52.8029 55.8078C52.7489 55.7781 52.6677 55.7632 52.5596 55.7632H52.0931V58.0551H51.0019V52.1895H52.7908C53.1883 52.1895 53.529 52.2314 53.813 52.3152C54.0997 52.3964 54.3336 52.5113 54.5148 52.66C54.6987 52.8088 54.8339 52.9872 54.9204 53.1955C55.007 53.401 55.0502 53.6282 55.0502 53.877C55.0502 54.0744 55.0205 54.261 54.961 54.4368C54.9042 54.6125 54.8204 54.7721 54.7095 54.9154C54.6013 55.0587 54.4661 55.1845 54.3038 55.2927C54.1443 55.4008 53.9617 55.486 53.7562 55.5482C53.8265 55.5888 53.8914 55.6375 53.9509 55.6943C54.0104 55.7483 54.0645 55.8132 54.1132 55.889L55.5816 58.0551ZM57.3103 53.0576V54.6842H59.3629V55.5239H57.3103V57.183H59.9146V58.0551H56.2151V52.1895H59.9146V53.0576H57.3103ZM67.2421 52.1895V58.0551H66.2807V54.2664C66.2807 54.1149 66.2888 53.9513 66.3051 53.7755L64.5324 57.1059C64.4486 57.2655 64.3201 57.3452 64.147 57.3452H63.9929C63.8198 57.3452 63.6913 57.2655 63.6075 57.1059L61.8146 53.7634C61.8227 53.8526 61.8294 53.9405 61.8348 54.027C61.8403 54.1136 61.843 54.1934 61.843 54.2664V58.0551H60.8816V52.1895H61.705C61.7537 52.1895 61.7956 52.1908 61.8308 52.1935C61.8659 52.1962 61.897 52.203 61.9241 52.2138C61.9538 52.2246 61.9795 52.2422 62.0012 52.2665C62.0255 52.2909 62.0485 52.3233 62.0701 52.3639L63.8266 55.6212C63.8725 55.7078 63.9145 55.797 63.9523 55.889C63.9929 55.9809 64.0321 56.0756 64.07 56.1729C64.1078 56.0729 64.147 55.9769 64.1876 55.8849C64.2282 55.7903 64.2714 55.6997 64.3174 55.6131L66.0495 52.3639C66.0711 52.3233 66.0941 52.2909 66.1185 52.2665C66.1428 52.2422 66.1685 52.2246 66.1955 52.2138C66.2253 52.203 66.2577 52.1962 66.2929 52.1935C66.328 52.1908 66.37 52.1895 66.4186 52.1895H67.2421ZM69.6461 58.0551H68.5508V52.1895H69.6461V58.0551ZM73.3202 57.1749C73.5311 57.1749 73.7191 57.1397 73.8841 57.0694C74.0517 56.9991 74.1923 56.9004 74.3059 56.7733C74.4195 56.6462 74.506 56.492 74.5655 56.3108C74.6277 56.1296 74.6588 55.9268 74.6588 55.7024V52.1895H75.75V55.7024C75.75 56.0512 75.6932 56.3744 75.5797 56.6719C75.4688 56.9666 75.3079 57.2222 75.0969 57.4385C74.8887 57.6522 74.6345 57.8198 74.3343 57.9415C74.0341 58.0605 73.6961 58.12 73.3202 58.12C72.9416 58.12 72.6022 58.0605 72.302 57.9415C72.0019 57.8198 71.7463 57.6522 71.5354 57.4385C71.3271 57.2222 71.1662 56.9666 71.0526 56.6719C70.9418 56.3744 70.8863 56.0512 70.8863 55.7024V52.1895H71.9775V55.6983C71.9775 55.9228 72.0073 56.1256 72.0668 56.3068C72.129 56.488 72.2168 56.6435 72.3304 56.7733C72.4467 56.9004 72.5873 56.9991 72.7523 57.0694C72.92 57.1397 73.1093 57.1749 73.3202 57.1749ZM83.3412 52.1895V58.0551H82.3798V54.2664C82.3798 54.1149 82.3879 53.9513 82.4041 53.7755L80.6315 57.1059C80.5476 57.2655 80.4192 57.3452 80.2461 57.3452H80.092C79.9189 57.3452 79.7904 57.2655 79.7066 57.1059L77.9136 53.7634C77.9218 53.8526 77.9285 53.9405 77.9339 54.027C77.9393 54.1136 77.942 54.1934 77.942 54.2664V58.0551H76.9807V52.1895H77.8041C77.8528 52.1895 77.8947 52.1908 77.9299 52.1935C77.965 52.1962 77.9961 52.203 78.0232 52.2138C78.0529 52.2246 78.0786 52.2422 78.1002 52.2665C78.1246 52.2909 78.1476 52.3233 78.1692 52.3639L79.9256 55.6212C79.9716 55.7078 80.0135 55.797 80.0514 55.889C80.092 55.9809 80.1312 56.0756 80.169 56.1729C80.2069 56.0729 80.2461 55.9769 80.2867 55.8849C80.3272 55.7903 80.3705 55.6997 80.4165 55.6131L82.1486 52.3639C82.1702 52.3233 82.1932 52.2909 82.2175 52.2665C82.2419 52.2422 82.2676 52.2246 82.2946 52.2138C82.3244 52.203 82.3568 52.1962 82.392 52.1935C82.4271 52.1908 82.469 52.1895 82.5177 52.1895H83.3412ZM89.4524 55.8403L88.7385 53.8891C88.7033 53.8026 88.6668 53.6998 88.629 53.5808C88.5911 53.4618 88.5533 53.3334 88.5154 53.1955C88.4802 53.3334 88.4437 53.4632 88.4059 53.5849C88.368 53.7039 88.3315 53.808 88.2963 53.8972L87.5865 55.8403H89.4524ZM91.3793 58.0551H90.5355C90.4409 58.0551 90.3638 58.0321 90.3043 57.9862C90.2448 57.9375 90.2002 57.878 90.1704 57.8077L89.7323 56.611H87.3025L86.8644 57.8077C86.8428 57.8699 86.8009 57.9267 86.7387 57.978C86.6765 58.0294 86.5994 58.0551 86.5074 58.0551H85.6556L87.9637 52.1895H89.0752L91.3793 58.0551ZM95.8402 56.6719C95.8996 56.6719 95.9524 56.6948 95.9984 56.7408L96.4283 57.2073C96.1904 57.5021 95.8969 57.7279 95.5481 57.8847C95.2019 58.0416 94.7855 58.12 94.2987 58.12C93.8633 58.12 93.4712 58.0456 93.1223 57.8969C92.7762 57.7482 92.4801 57.5413 92.234 57.2763C91.9879 57.0113 91.7986 56.6948 91.6661 56.3271C91.5362 55.9593 91.4713 55.5577 91.4713 55.1223C91.4713 54.6815 91.5417 54.2785 91.6823 53.9135C91.8229 53.5457 92.0203 53.2293 92.2745 52.9643C92.5314 52.6992 92.837 52.4937 93.1913 52.3477C93.5455 52.1989 93.9377 52.1246 94.3677 52.1246C94.7949 52.1246 95.1735 52.1949 95.5035 52.3355C95.8361 52.4761 96.1187 52.66 96.3513 52.8872L95.9862 53.3942C95.9646 53.4267 95.9362 53.4551 95.901 53.4794C95.8685 53.5038 95.8226 53.5159 95.7631 53.5159C95.7225 53.5159 95.6806 53.5051 95.6373 53.4835C95.5941 53.4591 95.5467 53.4307 95.4954 53.3983C95.444 53.3631 95.3845 53.3253 95.3169 53.2847C95.2493 53.2442 95.1708 53.2076 95.0816 53.1752C94.9924 53.14 94.8882 53.1116 94.7692 53.09C94.653 53.0657 94.5177 53.0535 94.3636 53.0535C94.1013 53.0535 93.8606 53.1008 93.6416 53.1955C93.4252 53.2874 93.2386 53.4226 93.0818 53.6011C92.9249 53.7769 92.8032 53.9932 92.7167 54.2502C92.6301 54.5044 92.5869 54.7951 92.5869 55.1223C92.5869 55.4522 92.6328 55.7456 92.7248 56.0025C92.8194 56.2595 92.9465 56.4758 93.1061 56.6516C93.2657 56.8274 93.4536 56.9626 93.6699 57.0572C93.8863 57.1492 94.1189 57.1951 94.3677 57.1951C94.5164 57.1951 94.6503 57.187 94.7692 57.1708C94.8909 57.1546 95.0018 57.1289 95.1019 57.0937C95.2046 57.0586 95.3006 57.014 95.3899 56.9599C95.4818 56.9031 95.5724 56.8341 95.6617 56.753C95.6887 56.7287 95.7171 56.7097 95.7469 56.6962C95.7766 56.68 95.8077 56.6719 95.8402 56.6719ZM101.077 56.6719C101.137 56.6719 101.189 56.6948 101.235 56.7408L101.665 57.2073C101.427 57.5021 101.134 57.7279 100.785 57.8847C100.439 58.0416 100.022 58.12 99.5357 58.12C99.1003 58.12 98.7081 58.0456 98.3593 57.8969C98.0131 57.7482 97.717 57.5413 97.4709 57.2763C97.2248 57.0113 97.0355 56.6948 96.903 56.3271C96.7732 55.9593 96.7083 55.5577 96.7083 55.1223C96.7083 54.6815 96.7786 54.2785 96.9192 53.9135C97.0599 53.5457 97.2573 53.2293 97.5115 52.9643C97.7684 52.6992 98.074 52.4937 98.4282 52.3477C98.7825 52.1989 99.1746 52.1246 99.6046 52.1246C100.032 52.1246 100.41 52.1949 100.74 52.3355C101.073 52.4761 101.356 52.66 101.588 52.8872L101.223 53.3942C101.202 53.4267 101.173 53.4551 101.138 53.4794C101.106 53.5038 101.06 53.5159 101 53.5159C100.959 53.5159 100.918 53.5051 100.874 53.4835C100.831 53.4591 100.784 53.4307 100.732 53.3983C100.681 53.3631 100.621 53.3253 100.554 53.2847C100.486 53.2442 100.408 53.2076 100.319 53.1752C100.229 53.14 100.125 53.1116 100.006 53.09C99.8899 53.0657 99.7547 53.0535 99.6006 53.0535C99.3382 53.0535 99.0976 53.1008 98.8785 53.1955C98.6622 53.2874 98.4756 53.4226 98.3187 53.6011C98.1619 53.7769 98.0402 53.9932 97.9536 54.2502C97.8671 54.5044 97.8238 54.7951 97.8238 55.1223C97.8238 55.4522 97.8698 55.7456 97.9617 56.0025C98.0564 56.2595 98.1835 56.4758 98.3431 56.6516C98.5026 56.8274 98.6906 56.9626 98.9069 57.0572C99.1232 57.1492 99.3558 57.1951 99.6046 57.1951C99.7533 57.1951 99.8872 57.187 100.006 57.1708C100.128 57.1546 100.239 57.1289 100.339 57.0937C100.442 57.0586 100.538 57.014 100.627 56.9599C100.719 56.9031 100.809 56.8341 100.899 56.753C100.926 56.7287 100.954 56.7097 100.984 56.6962C101.014 56.68 101.045 56.6719 101.077 56.6719ZM107.88 55.1223C107.88 55.5523 107.808 55.9512 107.665 56.3189C107.524 56.684 107.324 57.0004 107.065 57.2682C106.805 57.5359 106.493 57.7455 106.127 57.8969C105.762 58.0456 105.357 58.12 104.911 58.12C104.467 58.12 104.063 58.0456 103.698 57.8969C103.333 57.7455 103.019 57.5359 102.757 57.2682C102.497 57.0004 102.295 56.684 102.152 56.3189C102.009 55.9512 101.937 55.5523 101.937 55.1223C101.937 54.6923 102.009 54.2948 102.152 53.9297C102.295 53.5619 102.497 53.2442 102.757 52.9764C103.019 52.7087 103.333 52.5005 103.698 52.3517C104.063 52.2003 104.467 52.1246 104.911 52.1246C105.208 52.1246 105.488 52.1597 105.75 52.23C106.013 52.2976 106.253 52.395 106.472 52.5221C106.691 52.6465 106.887 52.7993 107.06 52.9805C107.236 53.159 107.385 53.3591 107.507 53.5808C107.628 53.8026 107.72 54.0433 107.783 54.3029C107.847 54.5625 107.88 54.8356 107.88 55.1223ZM106.764 55.1223C106.764 54.8005 106.721 54.5125 106.635 54.2583C106.548 54.0014 106.425 53.7837 106.265 53.6052C106.106 53.4267 105.911 53.2901 105.681 53.1955C105.454 53.1008 105.197 53.0535 104.911 53.0535C104.624 53.0535 104.366 53.1008 104.136 53.1955C103.909 53.2901 103.714 53.4267 103.552 53.6052C103.392 53.7837 103.269 54.0014 103.182 54.2583C103.096 54.5125 103.053 54.8005 103.053 55.1223C103.053 55.4441 103.096 55.7335 103.182 55.9904C103.269 56.2446 103.392 56.4609 103.552 56.6394C103.714 56.8152 103.909 56.9504 104.136 57.0451C104.366 57.1397 104.624 57.187 104.911 57.187C105.197 57.187 105.454 57.1397 105.681 57.0451C105.911 56.9504 106.106 56.8152 106.265 56.6394C106.425 56.4609 106.548 56.2446 106.635 55.9904C106.721 55.7335 106.764 55.4441 106.764 55.1223ZM111.199 57.1749C111.41 57.1749 111.598 57.1397 111.763 57.0694C111.931 56.9991 112.071 56.9004 112.185 56.7733C112.298 56.6462 112.385 56.492 112.444 56.3108C112.507 56.1296 112.538 55.9268 112.538 55.7024V52.1895H113.629V55.7024C113.629 56.0512 113.572 56.3744 113.458 56.6719C113.348 56.9666 113.187 57.2222 112.976 57.4385C112.767 57.6522 112.513 57.8198 112.213 57.9415C111.913 58.0605 111.575 58.12 111.199 58.12C110.82 58.12 110.481 58.0605 110.181 57.9415C109.881 57.8198 109.625 57.6522 109.414 57.4385C109.206 57.2222 109.045 56.9666 108.931 56.6719C108.821 56.3744 108.765 56.0512 108.765 55.7024V52.1895H109.856V55.6983C109.856 55.9228 109.886 56.1256 109.946 56.3068C110.008 56.488 110.096 56.6435 110.209 56.7733C110.325 56.9004 110.466 56.9991 110.631 57.0694C110.799 57.1397 110.988 57.1749 111.199 57.1749ZM119.804 52.1895V58.0551H119.244C119.158 58.0551 119.085 58.0416 119.025 58.0146C118.969 57.9848 118.913 57.9361 118.859 57.8685L115.796 53.9581C115.813 54.1366 115.821 54.3015 115.821 54.453V58.0551H114.859V52.1895H115.431C115.477 52.1895 115.517 52.1922 115.549 52.1976C115.584 52.2003 115.614 52.2084 115.638 52.2219C115.665 52.2327 115.691 52.2503 115.715 52.2747C115.74 52.2963 115.767 52.326 115.796 52.3639L118.871 56.2906C118.863 56.1959 118.856 56.1026 118.851 56.0107C118.846 55.9187 118.843 55.8335 118.843 55.7551V52.1895H119.804ZM125.208 53.086H123.439V58.0551H122.348V53.086H120.579V52.1895H125.208V53.086Z" fill="white" fill-opacity="0.39"/>
<path d="M51.0426 117.701C51.9739 117.701 52.8192 117.916 53.5786 118.346C54.338 118.761 54.9326 119.349 55.3624 120.108C55.7922 120.853 56.0071 121.691 56.0071 122.623C56.0071 123.611 55.7492 124.507 55.2334 125.309C54.732 126.111 54.0371 126.749 53.1487 127.222C52.2747 127.68 51.3148 127.91 50.2688 127.91C49.6814 127.91 49.094 127.816 48.5065 127.63C47.9191 127.444 47.4248 127.186 47.0236 126.856C46.8803 126.742 46.7657 126.591 46.6797 126.405C46.5938 126.219 46.5508 126.033 46.5508 125.846C46.5508 125.631 46.6367 125.438 46.8087 125.266C46.9949 125.08 47.2313 124.987 47.5179 124.987C47.7042 124.987 47.9549 125.094 48.2701 125.309C48.9149 125.782 49.5739 126.018 50.2474 126.018C50.9351 126.018 51.5584 125.868 52.1171 125.567C52.6903 125.266 53.1416 124.858 53.4711 124.342C53.8007 123.826 53.9654 123.26 53.9654 122.644C53.9654 121.727 53.6645 120.989 53.0628 120.43C52.461 119.872 51.7016 119.592 50.7847 119.592C50.3978 119.592 50.0539 119.642 49.753 119.743C49.4665 119.843 49.1155 119.993 48.7 120.194C48.528 120.28 48.3561 120.359 48.1841 120.43C48.0265 120.488 47.8904 120.516 47.7758 120.516C47.3603 120.516 47.0522 120.395 46.8517 120.151C46.6511 119.907 46.5508 119.628 46.5508 119.313L46.5723 119.098L47.346 113.532C47.389 113.302 47.5036 113.109 47.6898 112.951C47.8904 112.794 48.1268 112.715 48.3991 112.715H54.7176C54.9899 112.715 55.212 112.808 55.3839 112.994C55.5702 113.181 55.6633 113.41 55.6633 113.682C55.6633 113.954 55.5702 114.183 55.3839 114.37C55.212 114.542 54.9899 114.628 54.7176 114.628H49.1083L48.5495 118.303C48.8647 118.131 49.2444 117.988 49.6886 117.873C50.1471 117.758 50.5984 117.701 51.0426 117.701ZM67.4275 112.715C67.7284 112.715 67.9791 112.808 68.1797 112.994C68.3946 113.181 68.5021 113.417 68.5021 113.703C68.5021 113.847 68.4663 114.004 68.3946 114.176L62.6348 127.2C62.5489 127.401 62.4199 127.559 62.248 127.673C62.0761 127.788 61.8898 127.845 61.6892 127.845C61.417 127.845 61.1734 127.752 60.9585 127.566C60.7436 127.379 60.6361 127.15 60.6361 126.878C60.6361 126.735 60.6719 126.577 60.7436 126.405L65.9876 114.606H59.7764C59.5042 114.606 59.275 114.513 59.0887 114.327C58.9024 114.14 58.8093 113.911 58.8093 113.639C58.8093 113.367 58.8953 113.145 59.0672 112.973C59.2535 112.801 59.4899 112.715 59.7764 112.715H67.4275ZM78.1057 119.979C78.7935 120.366 79.3379 120.867 79.7391 121.483C80.1546 122.1 80.3624 122.759 80.3624 123.461C80.3624 124.249 80.1474 124.979 79.7176 125.653C79.2878 126.312 78.7003 126.842 77.9553 127.243C77.2102 127.63 76.3935 127.824 75.5052 127.824C74.6169 127.824 73.8002 127.63 73.0552 127.243C72.3101 126.842 71.7227 126.312 71.2928 125.653C70.863 124.979 70.6481 124.249 70.6481 123.461C70.6481 122.687 70.8487 122.014 71.2498 121.441C71.6654 120.853 72.1955 120.373 72.8402 120.001C72.3101 119.7 71.8731 119.291 71.5292 118.776C71.1854 118.245 71.0134 117.629 71.0134 116.927C71.0134 116.154 71.214 115.444 71.6152 114.8C72.0164 114.155 72.5537 113.646 73.2271 113.274C73.9148 112.901 74.6742 112.715 75.5052 112.715C76.3219 112.715 77.0741 112.901 77.7618 113.274C78.4496 113.646 78.9869 114.155 79.3737 114.8C79.7749 115.444 79.9755 116.154 79.9755 116.927C79.9755 117.658 79.7964 118.281 79.4382 118.797C79.08 119.299 78.6358 119.693 78.1057 119.979ZM75.5052 114.606C74.7888 114.606 74.2014 114.828 73.7429 115.272C73.2844 115.717 73.0552 116.282 73.0552 116.97C73.0552 117.644 73.2916 118.21 73.7644 118.668C74.2372 119.112 74.8175 119.334 75.5052 119.334C76.1786 119.334 76.7517 119.112 77.2246 118.668C77.6974 118.21 77.9338 117.644 77.9338 116.97C77.9338 116.282 77.7045 115.717 77.246 115.272C76.7876 114.828 76.2073 114.606 75.5052 114.606ZM75.5052 125.932C76.3076 125.932 76.9738 125.696 77.5039 125.223C78.0484 124.75 78.3206 124.156 78.3206 123.439C78.3206 122.723 78.0412 122.121 77.4825 121.634C76.938 121.147 76.2789 120.903 75.5052 120.903C74.7315 120.903 74.0724 121.147 73.528 121.634C72.9835 122.121 72.7113 122.723 72.7113 123.439C72.7113 124.156 72.9763 124.75 73.5065 125.223C74.0366 125.696 74.7029 125.932 75.5052 125.932ZM87.6078 112.457C88.6394 112.457 89.5277 112.722 90.2727 113.252C91.0321 113.782 91.6052 114.477 91.9921 115.337C92.3933 116.197 92.5938 117.121 92.5938 118.109C92.5938 119.213 92.3789 120.416 91.9491 121.72C91.5193 123.024 90.8172 124.242 89.8429 125.374C88.8686 126.491 87.6149 127.293 86.0818 127.781C85.9529 127.824 85.8239 127.845 85.695 127.845C85.4084 127.845 85.1577 127.766 84.9428 127.609C84.7422 127.437 84.6419 127.186 84.6419 126.856C84.6419 126.613 84.7207 126.398 84.8783 126.212C85.0359 126.025 85.2508 125.896 85.5231 125.825C86.5403 125.467 87.4788 124.865 88.3385 124.02C89.2125 123.174 89.8286 122.207 90.1868 121.118C89.3558 121.92 88.3886 122.322 87.2854 122.322C86.4974 122.322 85.7451 122.1 85.0287 121.655C84.3267 121.197 83.7607 120.588 83.3309 119.829C82.9154 119.055 82.7076 118.231 82.7076 117.357C82.7076 116.483 82.9226 115.674 83.3524 114.929C83.7966 114.169 84.3912 113.567 85.1362 113.123C85.8813 112.679 86.7051 112.457 87.6078 112.457ZM87.5648 120.409C88.4388 120.409 89.148 120.115 89.6925 119.528C90.2512 118.94 90.5306 118.21 90.5306 117.336C90.5306 116.505 90.2584 115.803 89.714 115.229C89.1695 114.642 88.4674 114.348 87.6078 114.348C86.8054 114.348 86.132 114.635 85.5875 115.208C85.0431 115.781 84.7708 116.497 84.7708 117.357C84.7708 118.217 85.0287 118.94 85.5446 119.528C86.0747 120.115 86.7481 120.409 87.5648 120.409Z" fill="white"/>
<path d="M255.26 125.868C255.533 125.868 255.762 125.961 255.948 126.147C256.134 126.333 256.227 126.563 256.227 126.835C256.227 127.107 256.134 127.329 255.948 127.501C255.762 127.673 255.533 127.759 255.26 127.759H247.631C247.344 127.759 247.108 127.673 246.922 127.501C246.735 127.315 246.642 127.071 246.642 126.77C246.642 126.513 246.742 126.269 246.943 126.04L251.736 120.839C253.068 119.42 253.734 118.167 253.734 117.078C253.734 116.304 253.477 115.666 252.961 115.165C252.459 114.649 251.815 114.391 251.026 114.391C250.496 114.391 249.988 114.542 249.501 114.843C249.013 115.143 248.619 115.573 248.319 116.132C248.089 116.433 247.817 116.583 247.502 116.583C247.258 116.583 247.029 116.49 246.814 116.304C246.599 116.118 246.492 115.903 246.492 115.659C246.492 115.502 246.542 115.337 246.642 115.165C246.757 114.993 246.914 114.792 247.115 114.563C247.588 113.933 248.19 113.431 248.92 113.059C249.651 112.686 250.389 112.5 251.134 112.5C252.094 112.5 252.925 112.693 253.627 113.08C254.329 113.467 254.866 113.997 255.239 114.671C255.626 115.344 255.819 116.118 255.819 116.992C255.819 118.639 254.931 120.416 253.154 122.322L249.909 125.868H255.26ZM265.809 119.979C266.497 120.366 267.041 120.867 267.442 121.483C267.858 122.1 268.066 122.759 268.066 123.461C268.066 124.249 267.851 124.979 267.421 125.653C266.991 126.312 266.404 126.842 265.659 127.243C264.914 127.63 264.097 127.824 263.209 127.824C262.32 127.824 261.504 127.63 260.759 127.243C260.014 126.842 259.426 126.312 258.996 125.653C258.566 124.979 258.351 124.249 258.351 123.461C258.351 122.687 258.552 122.014 258.953 121.441C259.369 120.853 259.899 120.373 260.544 120.001C260.014 119.7 259.577 119.291 259.233 118.776C258.889 118.245 258.717 117.629 258.717 116.927C258.717 116.154 258.917 115.444 259.319 114.8C259.72 114.155 260.257 113.646 260.93 113.274C261.618 112.901 262.378 112.715 263.209 112.715C264.025 112.715 264.778 112.901 265.465 113.274C266.153 113.646 266.69 114.155 267.077 114.8C267.478 115.444 267.679 116.154 267.679 116.927C267.679 117.658 267.5 118.281 267.142 118.797C266.783 119.299 266.339 119.693 265.809 119.979ZM263.209 114.606C262.492 114.606 261.905 114.828 261.446 115.272C260.988 115.717 260.759 116.282 260.759 116.97C260.759 117.644 260.995 118.21 261.468 118.668C261.941 119.112 262.521 119.334 263.209 119.334C263.882 119.334 264.455 119.112 264.928 118.668C265.401 118.21 265.637 117.644 265.637 116.97C265.637 116.282 265.408 115.717 264.949 115.272C264.491 114.828 263.911 114.606 263.209 114.606ZM263.209 125.932C264.011 125.932 264.677 125.696 265.207 125.223C265.752 124.75 266.024 124.156 266.024 123.439C266.024 122.723 265.745 122.121 265.186 121.634C264.641 121.147 263.982 120.903 263.209 120.903C262.435 120.903 261.776 121.147 261.231 121.634C260.687 122.121 260.415 122.723 260.415 123.439C260.415 124.156 260.68 124.75 261.21 125.223C261.74 125.696 262.406 125.932 263.209 125.932ZM280.942 121.569C281.214 121.569 281.443 121.663 281.63 121.849C281.816 122.021 281.909 122.243 281.909 122.515C281.909 122.787 281.816 123.009 281.63 123.181C281.443 123.353 281.214 123.439 280.942 123.439H279.803V126.727C279.803 127.014 279.703 127.258 279.502 127.458C279.301 127.659 279.058 127.759 278.771 127.759C278.485 127.759 278.241 127.659 278.041 127.458C277.854 127.258 277.761 127.014 277.761 126.727V123.439H271.872C271.615 123.439 271.378 123.339 271.163 123.138C270.963 122.938 270.862 122.701 270.862 122.429C270.862 122.171 270.941 121.942 271.099 121.741L277.955 113.123C278.055 112.994 278.177 112.894 278.32 112.822C278.478 112.751 278.635 112.715 278.793 112.715C279.079 112.715 279.316 112.815 279.502 113.016C279.703 113.216 279.803 113.46 279.803 113.746V121.569H280.942ZM277.761 121.569V116.197L273.57 121.569H277.761ZM293.182 112.715C293.483 112.715 293.734 112.808 293.934 112.994C294.149 113.181 294.257 113.417 294.257 113.703C294.257 113.847 294.221 114.004 294.149 114.176L288.39 127.2C288.304 127.401 288.175 127.559 288.003 127.673C287.831 127.788 287.645 127.845 287.444 127.845C287.172 127.845 286.928 127.752 286.713 127.566C286.498 127.379 286.391 127.15 286.391 126.878C286.391 126.735 286.427 126.577 286.498 126.405L291.742 114.606H285.531C285.259 114.606 285.03 114.513 284.843 114.327C284.657 114.14 284.564 113.911 284.564 113.639C284.564 113.367 284.65 113.145 284.822 112.973C285.008 112.801 285.245 112.715 285.531 112.715H293.182Z" fill="white"/>
<path d="M113.487 119.377C113.3 119.377 113.15 119.32 113.035 119.205C112.935 119.076 112.899 118.919 112.928 118.733L113.1 116.906C113.114 116.863 113.107 116.834 113.078 116.82C113.05 116.805 113.014 116.813 112.971 116.841L111.466 117.894C111.337 117.98 111.209 118.023 111.08 118.023C110.879 118.023 110.714 117.923 110.585 117.722C110.528 117.608 110.499 117.493 110.499 117.379C110.499 117.149 110.621 116.977 110.865 116.863L112.563 116.089C112.606 116.075 112.627 116.053 112.627 116.025C112.627 115.996 112.606 115.974 112.563 115.96L110.865 115.186C110.75 115.129 110.657 115.057 110.585 114.971C110.528 114.871 110.499 114.764 110.499 114.649C110.499 114.534 110.528 114.427 110.585 114.327C110.714 114.126 110.886 114.026 111.101 114.026C111.201 114.026 111.323 114.062 111.466 114.133L112.971 115.229C113.014 115.258 113.05 115.265 113.078 115.251C113.107 115.237 113.114 115.208 113.1 115.165L112.928 113.338C112.914 113.152 112.957 112.994 113.057 112.865C113.171 112.736 113.329 112.672 113.53 112.672C113.702 112.672 113.838 112.736 113.938 112.865C114.053 112.994 114.103 113.152 114.088 113.338L113.917 115.165C113.902 115.208 113.909 115.237 113.938 115.251C113.967 115.265 114.002 115.258 114.045 115.229L115.55 114.155C115.665 114.069 115.786 114.026 115.915 114.026C116.144 114.026 116.316 114.126 116.431 114.327C116.488 114.427 116.517 114.534 116.517 114.649C116.517 114.893 116.388 115.072 116.13 115.186L114.454 115.96C114.411 115.974 114.389 115.996 114.389 116.025C114.389 116.053 114.411 116.075 114.454 116.089L116.13 116.863C116.388 116.992 116.517 117.178 116.517 117.422C116.517 117.479 116.488 117.579 116.431 117.722C116.288 117.937 116.116 118.045 115.915 118.045C115.772 118.045 115.65 118.002 115.55 117.916L114.045 116.841C114.002 116.813 113.967 116.805 113.938 116.82C113.909 116.834 113.902 116.863 113.917 116.906L114.088 118.733C114.103 118.919 114.053 119.076 113.938 119.205C113.823 119.32 113.673 119.377 113.487 119.377ZM126.772 119.377C126.586 119.377 126.435 119.32 126.321 119.205C126.22 119.076 126.185 118.919 126.213 118.733L126.385 116.906C126.4 116.863 126.392 116.834 126.364 116.82C126.335 116.805 126.299 116.813 126.256 116.841L124.752 117.894C124.623 117.98 124.494 118.023 124.365 118.023C124.164 118.023 124 117.923 123.871 117.722C123.813 117.608 123.785 117.493 123.785 117.379C123.785 117.149 123.907 116.977 124.15 116.863L125.848 116.089C125.891 116.075 125.912 116.053 125.912 116.025C125.912 115.996 125.891 115.974 125.848 115.96L124.15 115.186C124.035 115.129 123.942 115.057 123.871 114.971C123.813 114.871 123.785 114.764 123.785 114.649C123.785 114.534 123.813 114.427 123.871 114.327C124 114.126 124.172 114.026 124.387 114.026C124.487 114.026 124.609 114.062 124.752 114.133L126.256 115.229C126.299 115.258 126.335 115.265 126.364 115.251C126.392 115.237 126.4 115.208 126.385 115.165L126.213 113.338C126.199 113.152 126.242 112.994 126.342 112.865C126.457 112.736 126.614 112.672 126.815 112.672C126.987 112.672 127.123 112.736 127.223 112.865C127.338 112.994 127.388 113.152 127.374 113.338L127.202 115.165C127.188 115.208 127.195 115.237 127.223 115.251C127.252 115.265 127.288 115.258 127.331 115.229L128.835 114.155C128.95 114.069 129.072 114.026 129.201 114.026C129.43 114.026 129.602 114.126 129.716 114.327C129.774 114.427 129.802 114.534 129.802 114.649C129.802 114.893 129.673 115.072 129.416 115.186L127.739 115.96C127.696 115.974 127.675 115.996 127.675 116.025C127.675 116.053 127.696 116.075 127.739 116.089L129.416 116.863C129.673 116.992 129.802 117.178 129.802 117.422C129.802 117.479 129.774 117.579 129.716 117.722C129.573 117.937 129.401 118.045 129.201 118.045C129.057 118.045 128.936 118.002 128.835 117.916L127.331 116.841C127.288 116.813 127.252 116.805 127.223 116.82C127.195 116.834 127.188 116.863 127.202 116.906L127.374 118.733C127.388 118.919 127.338 119.076 127.223 119.205C127.109 119.32 126.958 119.377 126.772 119.377ZM140.058 119.377C139.871 119.377 139.721 119.32 139.606 119.205C139.506 119.076 139.47 118.919 139.499 118.733L139.671 116.906C139.685 116.863 139.678 116.834 139.649 116.82C139.621 116.805 139.585 116.813 139.542 116.841L138.037 117.894C137.908 117.98 137.779 118.023 137.65 118.023C137.45 118.023 137.285 117.923 137.156 117.722C137.099 117.608 137.07 117.493 137.07 117.379C137.07 117.149 137.192 116.977 137.436 116.863L139.133 116.089C139.176 116.075 139.198 116.053 139.198 116.025C139.198 115.996 139.176 115.974 139.133 115.96L137.436 115.186C137.321 115.129 137.228 115.057 137.156 114.971C137.099 114.871 137.07 114.764 137.07 114.649C137.07 114.534 137.099 114.427 137.156 114.327C137.285 114.126 137.457 114.026 137.672 114.026C137.772 114.026 137.894 114.062 138.037 114.133L139.542 115.229C139.585 115.258 139.621 115.265 139.649 115.251C139.678 115.237 139.685 115.208 139.671 115.165L139.499 113.338C139.484 113.152 139.527 112.994 139.628 112.865C139.742 112.736 139.9 112.672 140.101 112.672C140.272 112.672 140.409 112.736 140.509 112.865C140.623 112.994 140.674 113.152 140.659 113.338L140.487 115.165C140.473 115.208 140.48 115.237 140.509 115.251C140.538 115.265 140.573 115.258 140.616 115.229L142.121 114.155C142.235 114.069 142.357 114.026 142.486 114.026C142.715 114.026 142.887 114.126 143.002 114.327C143.059 114.427 143.088 114.534 143.088 114.649C143.088 114.893 142.959 115.072 142.701 115.186L141.025 115.96C140.982 115.974 140.96 115.996 140.96 116.025C140.96 116.053 140.982 116.075 141.025 116.089L142.701 116.863C142.959 116.992 143.088 117.178 143.088 117.422C143.088 117.479 143.059 117.579 143.002 117.722C142.859 117.937 142.687 118.045 142.486 118.045C142.343 118.045 142.221 118.002 142.121 117.916L140.616 116.841C140.573 116.813 140.538 116.805 140.509 116.82C140.48 116.834 140.473 116.863 140.487 116.906L140.659 118.733C140.674 118.919 140.623 119.076 140.509 119.205C140.394 119.32 140.244 119.377 140.058 119.377ZM153.343 119.377C153.157 119.377 153.006 119.32 152.892 119.205C152.791 119.076 152.756 118.919 152.784 118.733L152.956 116.906C152.97 116.863 152.963 116.834 152.935 116.82C152.906 116.805 152.87 116.813 152.827 116.841L151.323 117.894C151.194 117.98 151.065 118.023 150.936 118.023C150.735 118.023 150.571 117.923 150.442 117.722C150.384 117.608 150.356 117.493 150.356 117.379C150.356 117.149 150.477 116.977 150.721 116.863L152.419 116.089C152.462 116.075 152.483 116.053 152.483 116.025C152.483 115.996 152.462 115.974 152.419 115.96L150.721 115.186C150.606 115.129 150.513 115.057 150.442 114.971C150.384 114.871 150.356 114.764 150.356 114.649C150.356 114.534 150.384 114.427 150.442 114.327C150.571 114.126 150.742 114.026 150.957 114.026C151.058 114.026 151.179 114.062 151.323 114.133L152.827 115.229C152.87 115.258 152.906 115.265 152.935 115.251C152.963 115.237 152.97 115.208 152.956 115.165L152.784 113.338C152.77 113.152 152.813 112.994 152.913 112.865C153.028 112.736 153.185 112.672 153.386 112.672C153.558 112.672 153.694 112.736 153.794 112.865C153.909 112.994 153.959 113.152 153.945 113.338L153.773 115.165C153.758 115.208 153.766 115.237 153.794 115.251C153.823 115.265 153.859 115.258 153.902 115.229L155.406 114.155C155.521 114.069 155.643 114.026 155.772 114.026C156.001 114.026 156.173 114.126 156.287 114.327C156.345 114.427 156.373 114.534 156.373 114.649C156.373 114.893 156.244 115.072 155.986 115.186L154.31 115.96C154.267 115.974 154.246 115.996 154.246 116.025C154.246 116.053 154.267 116.075 154.31 116.089L155.986 116.863C156.244 116.992 156.373 117.178 156.373 117.422C156.373 117.479 156.345 117.579 156.287 117.722C156.144 117.937 155.972 118.045 155.772 118.045C155.628 118.045 155.506 118.002 155.406 117.916L153.902 116.841C153.859 116.813 153.823 116.805 153.794 116.82C153.766 116.834 153.758 116.863 153.773 116.906L153.945 118.733C153.959 118.919 153.909 119.076 153.794 119.205C153.68 119.32 153.529 119.377 153.343 119.377Z" fill="white"/>
<path d="M185.415 119.377C185.229 119.377 185.079 119.32 184.964 119.205C184.864 119.076 184.828 118.919 184.857 118.733L185.029 116.906C185.043 116.863 185.036 116.834 185.007 116.82C184.978 116.805 184.943 116.813 184.9 116.841L183.395 117.894C183.266 117.98 183.137 118.023 183.008 118.023C182.808 118.023 182.643 117.923 182.514 117.722C182.457 117.608 182.428 117.493 182.428 117.379C182.428 117.149 182.55 116.977 182.793 116.863L184.491 116.089C184.534 116.075 184.556 116.053 184.556 116.025C184.556 115.996 184.534 115.974 184.491 115.96L182.793 115.186C182.679 115.129 182.586 115.057 182.514 114.971C182.457 114.871 182.428 114.764 182.428 114.649C182.428 114.534 182.457 114.427 182.514 114.327C182.643 114.126 182.815 114.026 183.03 114.026C183.13 114.026 183.252 114.062 183.395 114.133L184.9 115.229C184.943 115.258 184.978 115.265 185.007 115.251C185.036 115.237 185.043 115.208 185.029 115.165L184.857 113.338C184.842 113.152 184.885 112.994 184.986 112.865C185.1 112.736 185.258 112.672 185.458 112.672C185.63 112.672 185.766 112.736 185.867 112.865C185.981 112.994 186.031 113.152 186.017 113.338L185.845 115.165C185.831 115.208 185.838 115.237 185.867 115.251C185.895 115.265 185.931 115.258 185.974 115.229L187.479 114.155C187.593 114.069 187.715 114.026 187.844 114.026C188.073 114.026 188.245 114.126 188.36 114.327C188.417 114.427 188.446 114.534 188.446 114.649C188.446 114.893 188.317 115.072 188.059 115.186L186.383 115.96C186.34 115.974 186.318 115.996 186.318 116.025C186.318 116.053 186.34 116.075 186.383 116.089L188.059 116.863C188.317 116.992 188.446 117.178 188.446 117.422C188.446 117.479 188.417 117.579 188.36 117.722C188.216 117.937 188.045 118.045 187.844 118.045C187.701 118.045 187.579 118.002 187.479 117.916L185.974 116.841C185.931 116.813 185.895 116.805 185.867 116.82C185.838 116.834 185.831 116.863 185.845 116.906L186.017 118.733C186.031 118.919 185.981 119.076 185.867 119.205C185.752 119.32 185.602 119.377 185.415 119.377ZM198.701 119.377C198.515 119.377 198.364 119.32 198.249 119.205C198.149 119.076 198.113 118.919 198.142 118.733L198.314 116.906C198.328 116.863 198.321 116.834 198.292 116.82C198.264 116.805 198.228 116.813 198.185 116.841L196.681 117.894C196.552 117.98 196.423 118.023 196.294 118.023C196.093 118.023 195.928 117.923 195.799 117.722C195.742 117.608 195.713 117.493 195.713 117.379C195.713 117.149 195.835 116.977 196.079 116.863L197.777 116.089C197.82 116.075 197.841 116.053 197.841 116.025C197.841 115.996 197.82 115.974 197.777 115.96L196.079 115.186C195.964 115.129 195.871 115.057 195.799 114.971C195.742 114.871 195.713 114.764 195.713 114.649C195.713 114.534 195.742 114.427 195.799 114.327C195.928 114.126 196.1 114.026 196.315 114.026C196.416 114.026 196.537 114.062 196.681 114.133L198.185 115.229C198.228 115.258 198.264 115.265 198.292 115.251C198.321 115.237 198.328 115.208 198.314 115.165L198.142 113.338C198.128 113.152 198.171 112.994 198.271 112.865C198.386 112.736 198.543 112.672 198.744 112.672C198.916 112.672 199.052 112.736 199.152 112.865C199.267 112.994 199.317 113.152 199.303 113.338L199.131 115.165C199.116 115.208 199.123 115.237 199.152 115.251C199.181 115.265 199.217 115.258 199.26 115.229L200.764 114.155C200.879 114.069 201 114.026 201.129 114.026C201.359 114.026 201.531 114.126 201.645 114.327C201.702 114.427 201.731 114.534 201.731 114.649C201.731 114.893 201.602 115.072 201.344 115.186L199.668 115.96C199.625 115.974 199.603 115.996 199.603 116.025C199.603 116.053 199.625 116.075 199.668 116.089L201.344 116.863C201.602 116.992 201.731 117.178 201.731 117.422C201.731 117.479 201.702 117.579 201.645 117.722C201.502 117.937 201.33 118.045 201.129 118.045C200.986 118.045 200.864 118.002 200.764 117.916L199.26 116.841C199.217 116.813 199.181 116.805 199.152 116.82C199.123 116.834 199.116 116.863 199.131 116.906L199.303 118.733C199.317 118.919 199.267 119.076 199.152 119.205C199.038 119.32 198.887 119.377 198.701 119.377ZM211.986 119.377C211.8 119.377 211.65 119.32 211.535 119.205C211.435 119.076 211.399 118.919 211.427 118.733L211.599 116.906C211.614 116.863 211.607 116.834 211.578 116.82C211.549 116.805 211.513 116.813 211.47 116.841L209.966 117.894C209.837 117.98 209.708 118.023 209.579 118.023C209.379 118.023 209.214 117.923 209.085 117.722C209.028 117.608 208.999 117.493 208.999 117.379C208.999 117.149 209.121 116.977 209.364 116.863L211.062 116.089C211.105 116.075 211.127 116.053 211.127 116.025C211.127 115.996 211.105 115.974 211.062 115.96L209.364 115.186C209.25 115.129 209.157 115.057 209.085 114.971C209.028 114.871 208.999 114.764 208.999 114.649C208.999 114.534 209.028 114.427 209.085 114.327C209.214 114.126 209.386 114.026 209.601 114.026C209.701 114.026 209.823 114.062 209.966 114.133L211.47 115.229C211.513 115.258 211.549 115.265 211.578 115.251C211.607 115.237 211.614 115.208 211.599 115.165L211.427 113.338C211.413 113.152 211.456 112.994 211.556 112.865C211.671 112.736 211.829 112.672 212.029 112.672C212.201 112.672 212.337 112.736 212.438 112.865C212.552 112.994 212.602 113.152 212.588 113.338L212.416 115.165C212.402 115.208 212.409 115.237 212.438 115.251C212.466 115.265 212.502 115.258 212.545 115.229L214.049 114.155C214.164 114.069 214.286 114.026 214.415 114.026C214.644 114.026 214.816 114.126 214.931 114.327C214.988 114.427 215.017 114.534 215.017 114.649C215.017 114.893 214.888 115.072 214.63 115.186L212.953 115.96C212.91 115.974 212.889 115.996 212.889 116.025C212.889 116.053 212.91 116.075 212.953 116.089L214.63 116.863C214.888 116.992 215.017 117.178 215.017 117.422C215.017 117.479 214.988 117.579 214.931 117.722C214.787 117.937 214.615 118.045 214.415 118.045C214.272 118.045 214.15 118.002 214.049 117.916L212.545 116.841C212.502 116.813 212.466 116.805 212.438 116.82C212.409 116.834 212.402 116.863 212.416 116.906L212.588 118.733C212.602 118.919 212.552 119.076 212.438 119.205C212.323 119.32 212.173 119.377 211.986 119.377ZM225.272 119.377C225.085 119.377 224.935 119.32 224.82 119.205C224.72 119.076 224.684 118.919 224.713 118.733L224.885 116.906C224.899 116.863 224.892 116.834 224.863 116.82C224.835 116.805 224.799 116.813 224.756 116.841L223.251 117.894C223.123 117.98 222.994 118.023 222.865 118.023C222.664 118.023 222.499 117.923 222.37 117.722C222.313 117.608 222.284 117.493 222.284 117.379C222.284 117.149 222.406 116.977 222.65 116.863L224.348 116.089C224.391 116.075 224.412 116.053 224.412 116.025C224.412 115.996 224.391 115.974 224.348 115.96L222.65 115.186C222.535 115.129 222.442 115.057 222.37 114.971C222.313 114.871 222.284 114.764 222.284 114.649C222.284 114.534 222.313 114.427 222.37 114.327C222.499 114.126 222.671 114.026 222.886 114.026C222.986 114.026 223.108 114.062 223.251 114.133L224.756 115.229C224.799 115.258 224.835 115.265 224.863 115.251C224.892 115.237 224.899 115.208 224.885 115.165L224.713 113.338C224.699 113.152 224.742 112.994 224.842 112.865C224.956 112.736 225.114 112.672 225.315 112.672C225.487 112.672 225.623 112.736 225.723 112.865C225.838 112.994 225.888 113.152 225.873 113.338L225.702 115.165C225.687 115.208 225.694 115.237 225.723 115.251C225.752 115.265 225.787 115.258 225.83 115.229L227.335 114.155C227.45 114.069 227.571 114.026 227.7 114.026C227.929 114.026 228.101 114.126 228.216 114.327C228.273 114.427 228.302 114.534 228.302 114.649C228.302 114.893 228.173 115.072 227.915 115.186L226.239 115.96C226.196 115.974 226.174 115.996 226.174 116.025C226.174 116.053 226.196 116.075 226.239 116.089L227.915 116.863C228.173 116.992 228.302 117.178 228.302 117.422C228.302 117.479 228.273 117.579 228.216 117.722C228.073 117.937 227.901 118.045 227.7 118.045C227.557 118.045 227.435 118.002 227.335 117.916L225.83 116.841C225.787 116.813 225.752 116.805 225.723 116.82C225.694 116.834 225.687 116.863 225.702 116.906L225.873 118.733C225.888 118.919 225.838 119.076 225.723 119.205C225.608 119.32 225.458 119.377 225.272 119.377Z" fill="white"/>
<path d="M55.9679 181.546V190.604H54.7946V184.157C54.7946 184.06 54.7967 183.957 54.8009 183.848C54.8093 183.739 54.8177 183.627 54.8261 183.514L51.8107 189.046C51.7056 189.252 51.5437 189.355 51.325 189.355H51.1357C50.9171 189.355 50.7572 189.252 50.6563 189.046L47.5841 183.495C47.6094 183.73 47.622 183.951 47.622 184.157V190.604H46.4423V181.546H47.439C47.5568 181.546 47.6472 181.558 47.7103 181.583C47.7776 181.604 47.8407 181.667 47.8996 181.773L50.9276 187.198C50.9864 187.307 51.0411 187.423 51.0916 187.545C51.1421 187.667 51.1904 187.789 51.2367 187.911C51.325 187.663 51.428 187.423 51.5458 187.191L54.517 181.773C54.5717 181.667 54.6306 181.604 54.6937 181.583C54.761 181.558 54.8535 181.546 54.9712 181.546H55.9679ZM59.1449 184.195V190.604H57.9148V184.195H59.1449ZM59.3783 182.214C59.3783 182.328 59.3552 182.437 59.3089 182.542C59.2627 182.643 59.1996 182.734 59.1197 182.813C59.044 182.889 58.9535 182.95 58.8484 182.996C58.7433 183.038 58.6339 183.06 58.5204 183.06C58.4068 183.06 58.2996 183.038 58.1986 182.996C58.0977 182.95 58.0073 182.889 57.9274 182.813C57.8517 182.734 57.7907 182.643 57.7444 182.542C57.7024 182.437 57.6814 182.328 57.6814 182.214C57.6814 182.096 57.7024 181.987 57.7444 181.886C57.7907 181.781 57.8517 181.691 57.9274 181.615C58.0073 181.535 58.0977 181.474 58.1986 181.432C58.2996 181.386 58.4068 181.363 58.5204 181.363C58.6339 181.363 58.7433 181.386 58.8484 181.432C58.9535 181.474 59.044 181.535 59.1197 181.615C59.1996 181.691 59.2627 181.781 59.3089 181.886C59.3552 181.987 59.3783 182.096 59.3783 182.214ZM62.1561 181.293V186.737H62.4462C62.5346 186.737 62.6082 186.725 62.667 186.699C62.7259 186.674 62.7869 186.624 62.85 186.548L64.7677 184.435C64.8266 184.355 64.8918 184.296 64.9633 184.258C65.0348 184.216 65.1252 184.195 65.2345 184.195H66.3574L64.0927 186.674C63.9708 186.83 63.8404 186.95 63.7016 187.034C63.7815 187.088 63.8509 187.152 63.9098 187.223C63.9729 187.295 64.0338 187.372 64.0927 187.456L66.5025 190.604H65.3986C65.2976 190.604 65.2093 190.587 65.1336 190.554C65.0621 190.52 64.9969 190.459 64.938 190.371L62.9572 187.797C62.8941 187.7 62.8311 187.639 62.768 187.614C62.7049 187.585 62.6103 187.57 62.4841 187.57H62.1561V190.604H60.9259V181.293H62.1561ZM71.3073 186.687C71.3073 186.443 71.2716 186.218 71.2001 186.012C71.1328 185.806 71.0319 185.627 70.8973 185.476C70.7627 185.324 70.5987 185.206 70.4052 185.122C70.2118 185.038 69.9889 184.996 69.7365 184.996C69.2193 184.996 68.8113 185.145 68.5127 185.444C68.2183 185.743 68.0312 186.157 67.9513 186.687H71.3073ZM72.323 189.69C72.1716 189.866 71.997 190.02 71.7994 190.15C71.6017 190.276 71.3914 190.379 71.1685 190.459C70.9456 190.539 70.7143 190.598 70.4746 190.636C70.2391 190.674 70.0057 190.693 69.7744 190.693C69.3328 190.693 68.9228 190.619 68.5443 190.472C68.17 190.32 67.844 190.102 67.5665 189.816C67.2931 189.526 67.0786 189.168 66.923 188.743C66.7716 188.314 66.6959 187.822 66.6959 187.267C66.6959 186.821 66.7653 186.407 66.9041 186.024C67.0429 185.638 67.2405 185.301 67.4971 185.015C67.7578 184.729 68.0753 184.504 68.4496 184.34C68.8239 184.176 69.2445 184.094 69.7113 184.094C70.1024 184.094 70.462 184.159 70.79 184.29C71.1223 184.416 71.4083 184.601 71.648 184.845C71.8877 185.089 72.0748 185.389 72.2094 185.747C72.3482 186.104 72.4176 186.512 72.4176 186.971C72.4176 187.16 72.3966 187.288 72.3545 187.356C72.3125 187.419 72.2346 187.45 72.1211 187.45H67.9197C67.9323 187.833 67.987 188.167 68.0837 188.453C68.1805 188.735 68.313 188.97 68.4812 189.16C68.6536 189.349 68.8576 189.49 69.0931 189.582C69.3286 189.675 69.5914 189.721 69.8816 189.721C70.155 189.721 70.3905 189.69 70.5882 189.627C70.79 189.563 70.9625 189.496 71.1055 189.425C71.2526 189.349 71.3746 189.28 71.4713 189.216C71.5723 189.153 71.6606 189.122 71.7363 189.122C71.8372 189.122 71.915 189.16 71.9697 189.235L72.323 189.69ZM81.8704 183.022C81.8283 183.093 81.7842 183.146 81.7379 183.179C81.6916 183.213 81.6328 183.23 81.5613 183.23C81.4856 183.23 81.3994 183.196 81.3026 183.129C81.2059 183.057 81.0839 182.98 80.9367 182.895C80.7937 182.807 80.6213 182.729 80.4195 182.662C80.2176 182.591 79.9758 182.555 79.694 182.555C79.429 182.555 79.1956 182.591 78.9938 182.662C78.7961 182.729 78.63 182.824 78.4954 182.946C78.3608 183.064 78.2578 183.205 78.1863 183.369C78.119 183.528 78.0854 183.703 78.0854 183.892C78.0854 184.136 78.1463 184.338 78.2683 184.498C78.3945 184.658 78.5585 184.794 78.7604 184.908C78.9622 185.021 79.1914 185.12 79.448 185.204C79.7045 185.288 79.9674 185.377 80.2365 185.469C80.5057 185.558 80.7685 185.661 81.0251 185.778C81.2816 185.896 81.5108 186.045 81.7127 186.226C81.9145 186.403 82.0764 186.622 82.1984 186.882C82.3246 187.139 82.3877 187.454 82.3877 187.829C82.3877 188.228 82.3183 188.602 82.1795 188.952C82.0449 189.301 81.8472 189.605 81.5865 189.866C81.3258 190.127 81.004 190.333 80.6213 190.484C80.2428 190.632 79.8117 190.705 79.3281 190.705C79.0379 190.705 78.7561 190.676 78.4828 190.617C78.2094 190.562 77.9508 190.484 77.7069 190.384C77.4629 190.278 77.2337 190.154 77.0192 190.011C76.809 189.864 76.6197 189.7 76.4515 189.519L76.8363 188.876C76.8742 188.825 76.9183 188.783 76.9688 188.75C77.0235 188.716 77.0844 188.699 77.1517 188.699C77.24 188.699 77.341 188.745 77.4545 188.838C77.5723 188.93 77.7153 189.034 77.8835 189.147C78.0559 189.256 78.2599 189.357 78.4954 189.45C78.7351 189.542 79.0253 189.589 79.366 189.589C79.6435 189.589 79.8917 189.553 80.1103 189.481C80.329 189.406 80.512 189.301 80.6592 189.166C80.8106 189.027 80.9262 188.861 81.0061 188.668C81.086 188.474 81.126 188.26 81.126 188.024C81.126 187.759 81.065 187.543 80.943 187.374C80.8211 187.206 80.6592 187.065 80.4573 186.952C80.2554 186.838 80.0262 186.741 79.7697 186.662C79.5132 186.582 79.2503 186.5 78.9811 186.416C78.712 186.327 78.4491 186.226 78.1926 186.113C77.9361 185.999 77.7069 185.852 77.505 185.671C77.3031 185.486 77.1412 185.257 77.0192 184.984C76.8973 184.706 76.8363 184.365 76.8363 183.962C76.8363 183.638 76.8994 183.324 77.0256 183.022C77.1517 182.719 77.3347 182.452 77.5744 182.22C77.8183 181.985 78.1169 181.798 78.4702 181.659C78.8234 181.516 79.2272 181.445 79.6814 181.445C80.1902 181.445 80.6571 181.527 81.0818 181.691C81.5108 181.85 81.883 182.082 82.1984 182.385L81.8704 183.022ZM83.6582 190.604V184.195H84.3963C84.5687 184.195 84.676 184.277 84.718 184.441L84.8063 185.053C85.0418 184.771 85.3026 184.542 85.5886 184.365C85.8787 184.184 86.2173 184.094 86.6042 184.094C87.029 184.094 87.3738 184.212 87.6388 184.447C87.9037 184.679 88.0972 184.994 88.2192 185.394C88.3117 185.167 88.4315 184.971 88.5787 184.807C88.7259 184.643 88.8899 184.508 89.0708 184.403C89.2516 184.298 89.443 184.22 89.6448 184.17C89.8509 184.119 90.0591 184.094 90.2694 184.094C90.61 184.094 90.9128 184.149 91.1778 184.258C91.4469 184.363 91.674 184.519 91.8591 184.725C92.0441 184.931 92.185 185.185 92.2817 185.488C92.3785 185.791 92.4268 186.136 92.4268 186.523V190.604H91.1904V186.523C91.1904 186.043 91.0853 185.682 90.875 185.438C90.6689 185.194 90.3661 185.072 89.9666 185.072C89.7899 185.072 89.6217 185.103 89.4619 185.167C89.3021 185.225 89.1612 185.316 89.0392 185.438C88.9215 185.56 88.8269 185.711 88.7554 185.892C88.6881 186.073 88.6544 186.283 88.6544 186.523V190.604H87.418V186.523C87.418 186.027 87.3192 185.661 87.1215 185.425C86.9238 185.19 86.6336 185.072 86.2509 185.072C85.986 185.072 85.74 185.141 85.5129 185.28C85.2858 185.419 85.0776 185.608 84.8883 185.848V190.604H83.6582ZM95.3687 184.195V190.604H94.1386V184.195H95.3687ZM95.6021 182.214C95.6021 182.328 95.579 182.437 95.5327 182.542C95.4864 182.643 95.4234 182.734 95.3435 182.813C95.2678 182.889 95.1773 182.95 95.0722 182.996C94.9671 183.038 94.8577 183.06 94.7442 183.06C94.6306 183.06 94.5234 183.038 94.4224 182.996C94.3215 182.95 94.2311 182.889 94.1512 182.813C94.0755 182.734 94.0145 182.643 93.9682 182.542C93.9262 182.437 93.9052 182.328 93.9052 182.214C93.9052 182.096 93.9262 181.987 93.9682 181.886C94.0145 181.781 94.0755 181.691 94.1512 181.615C94.2311 181.535 94.3215 181.474 94.4224 181.432C94.5234 181.386 94.6306 181.363 94.7442 181.363C94.8577 181.363 94.9671 181.386 95.0722 181.432C95.1773 181.474 95.2678 181.535 95.3435 181.615C95.4234 181.691 95.4864 181.781 95.5327 181.886C95.579 181.987 95.6021 182.096 95.6021 182.214ZM99.1558 190.705C98.6385 190.705 98.239 190.56 97.9572 190.27C97.6796 189.98 97.5408 189.566 97.5408 189.027V185.192H96.7965C96.725 185.192 96.664 185.171 96.6135 185.129C96.5672 185.082 96.5441 185.015 96.5441 184.927V184.428L97.585 184.283L97.8626 182.372C97.8794 182.3 97.9109 182.246 97.9572 182.208C98.0077 182.166 98.0707 182.145 98.1464 182.145H98.771V184.296H100.588V185.192H98.771V188.945C98.771 189.198 98.8319 189.387 98.9539 189.513C99.0801 189.635 99.2399 189.696 99.4333 189.696C99.5469 189.696 99.6436 189.681 99.7235 189.652C99.8076 189.622 99.8791 189.591 99.938 189.557C99.9969 189.519 100.047 189.486 100.089 189.456C100.131 189.427 100.169 189.412 100.203 189.412C100.245 189.412 100.277 189.423 100.298 189.444C100.323 189.46 100.348 189.49 100.373 189.532L100.739 190.125C100.537 190.31 100.298 190.453 100.02 190.554C99.7425 190.655 99.4544 190.705 99.1558 190.705ZM102.951 185.009C103.22 184.735 103.517 184.515 103.84 184.346C104.168 184.178 104.545 184.094 104.97 184.094C105.323 184.094 105.632 184.153 105.897 184.271C106.166 184.388 106.391 184.555 106.572 184.769C106.753 184.979 106.889 185.234 106.982 185.532C107.075 185.831 107.121 186.161 107.121 186.523V190.604H105.884V186.523C105.884 186.064 105.779 185.709 105.569 185.457C105.359 185.2 105.037 185.072 104.604 185.072C104.288 185.072 103.992 185.148 103.714 185.299C103.441 185.446 103.186 185.648 102.951 185.905V190.604H101.721V181.293H102.951V185.009Z" fill="white"/>
<path d="M157.825 170.651L157.822 171.272H154.627V166.118H157.822V166.739H155.396V168.372H157.348V168.971H155.396V170.651H157.825ZM161.684 171.272H161.01C160.955 171.272 160.91 171.257 160.877 171.229C160.846 171.198 160.821 171.165 160.801 171.132L159.922 169.743C159.91 169.779 159.898 169.814 159.886 169.847C159.874 169.881 159.859 169.912 159.84 169.94L159.032 171.132C159.008 171.165 158.981 171.198 158.95 171.229C158.918 171.257 158.878 171.272 158.828 171.272H158.203L159.474 169.395L158.253 167.625H158.928C158.983 167.625 159.023 167.634 159.046 167.651C159.073 167.667 159.096 167.692 159.115 167.726L159.98 169.057C159.992 169.022 160.005 168.987 160.019 168.953C160.033 168.917 160.053 168.88 160.076 168.842L160.819 167.74C160.862 167.664 160.92 167.625 160.992 167.625H161.634L160.414 169.363L161.684 171.272ZM162.943 170.375C163.058 170.525 163.181 170.631 163.313 170.69C163.447 170.75 163.596 170.78 163.762 170.78C164.082 170.78 164.33 170.665 164.504 170.436C164.682 170.203 164.77 169.866 164.77 169.424C164.77 169.191 164.75 168.994 164.709 168.831C164.671 168.666 164.613 168.532 164.537 168.429C164.463 168.324 164.37 168.248 164.26 168.2C164.15 168.149 164.026 168.124 163.887 168.124C163.684 168.124 163.507 168.17 163.356 168.261C163.208 168.352 163.07 168.481 162.943 168.648V170.375ZM162.907 168.171C162.984 168.08 163.065 167.998 163.151 167.923C163.24 167.847 163.334 167.782 163.435 167.73C163.535 167.675 163.642 167.633 163.754 167.604C163.869 167.573 163.991 167.557 164.12 167.557C164.329 167.557 164.516 167.598 164.684 167.679C164.854 167.761 164.999 167.88 165.118 168.038C165.238 168.196 165.33 168.391 165.395 168.623C165.462 168.855 165.495 169.122 165.495 169.424C165.495 169.694 165.458 169.945 165.384 170.177C165.312 170.407 165.208 170.607 165.072 170.777C164.938 170.946 164.772 171.08 164.576 171.178C164.382 171.274 164.164 171.322 163.919 171.322C163.702 171.322 163.515 171.286 163.36 171.214C163.204 171.143 163.065 171.042 162.943 170.913V172.496H162.243V167.625H162.663C162.761 167.625 162.822 167.672 162.846 167.765L162.907 168.171ZM167.013 167.625V171.272H166.313V167.625H167.013ZM167.146 166.499C167.146 166.563 167.133 166.625 167.106 166.685C167.08 166.743 167.044 166.794 166.999 166.84C166.956 166.883 166.904 166.917 166.844 166.944C166.785 166.968 166.722 166.979 166.658 166.979C166.593 166.979 166.532 166.968 166.475 166.944C166.417 166.917 166.366 166.883 166.32 166.84C166.277 166.794 166.243 166.743 166.216 166.685C166.192 166.625 166.18 166.563 166.18 166.499C166.18 166.432 166.192 166.369 166.216 166.312C166.243 166.252 166.277 166.201 166.32 166.158C166.366 166.112 166.417 166.077 166.475 166.054C166.532 166.027 166.593 166.014 166.658 166.014C166.722 166.014 166.785 166.027 166.844 166.054C166.904 166.077 166.956 166.112 166.999 166.158C167.044 166.201 167.08 166.252 167.106 166.312C167.133 166.369 167.146 166.432 167.146 166.499ZM168.687 168.325C168.804 168.086 168.945 167.898 169.11 167.762C169.275 167.625 169.474 167.557 169.706 167.557C169.785 167.557 169.859 167.567 169.928 167.586C170 167.603 170.062 167.629 170.115 167.665L170.068 168.193C170.052 168.257 170.012 168.289 169.95 168.289C169.916 168.289 169.866 168.283 169.799 168.271C169.732 168.257 169.66 168.25 169.584 168.25C169.471 168.25 169.372 168.267 169.286 168.3C169.2 168.331 169.122 168.379 169.053 168.444C168.986 168.506 168.926 168.584 168.873 168.677C168.821 168.768 168.772 168.872 168.726 168.989V171.272H168.026V167.625H168.428C168.505 167.625 168.556 167.64 168.583 167.669C168.611 167.695 168.632 167.743 168.644 167.812L168.687 168.325ZM172.937 169.043C172.937 168.904 172.917 168.776 172.876 168.659C172.838 168.542 172.78 168.44 172.704 168.354C172.627 168.268 172.534 168.201 172.424 168.153C172.314 168.105 172.187 168.081 172.043 168.081C171.749 168.081 171.517 168.166 171.347 168.336C171.18 168.506 171.073 168.742 171.028 169.043H172.937ZM173.515 170.751C173.429 170.852 173.329 170.939 173.217 171.013C173.105 171.085 172.985 171.144 172.858 171.189C172.731 171.235 172.6 171.268 172.463 171.29C172.329 171.311 172.197 171.322 172.065 171.322C171.814 171.322 171.58 171.28 171.365 171.196C171.152 171.11 170.967 170.986 170.809 170.823C170.653 170.658 170.531 170.455 170.443 170.213C170.357 169.969 170.314 169.689 170.314 169.373C170.314 169.12 170.353 168.884 170.432 168.666C170.511 168.446 170.623 168.255 170.769 168.092C170.918 167.929 171.098 167.801 171.311 167.708C171.524 167.615 171.763 167.568 172.029 167.568C172.252 167.568 172.456 167.605 172.643 167.679C172.832 167.751 172.994 167.856 173.131 167.995C173.267 168.134 173.374 168.305 173.45 168.508C173.529 168.712 173.569 168.944 173.569 169.205C173.569 169.312 173.557 169.385 173.533 169.424C173.509 169.459 173.465 169.477 173.4 169.477H171.01C171.017 169.695 171.048 169.885 171.103 170.048C171.158 170.208 171.234 170.342 171.329 170.45C171.427 170.558 171.543 170.638 171.677 170.69C171.811 170.743 171.961 170.769 172.126 170.769C172.281 170.769 172.415 170.751 172.528 170.716C172.643 170.68 172.741 170.641 172.822 170.601C172.906 170.558 172.975 170.518 173.03 170.482C173.088 170.446 173.138 170.428 173.181 170.428C173.239 170.428 173.283 170.45 173.314 170.493L173.515 170.751ZM178.487 168.508C178.372 168.358 178.248 168.252 178.114 168.193C177.982 168.133 177.834 168.103 177.669 168.103C177.348 168.103 177.099 168.219 176.922 168.451C176.748 168.681 176.66 169.017 176.66 169.459C176.66 169.691 176.679 169.89 176.718 170.055C176.758 170.218 176.816 170.352 176.89 170.457C176.967 170.56 177.06 170.637 177.17 170.687C177.28 170.735 177.404 170.759 177.543 170.759C177.747 170.759 177.922 170.713 178.071 170.622C178.219 170.531 178.358 170.403 178.487 170.238V168.508ZM179.19 165.975V171.272H178.767C178.669 171.272 178.608 171.225 178.584 171.132L178.523 170.712C178.367 170.896 178.19 171.044 177.992 171.157C177.796 171.267 177.568 171.322 177.31 171.322C177.102 171.322 176.913 171.281 176.743 171.2C176.575 171.119 176.432 171 176.312 170.845C176.193 170.687 176.1 170.492 176.036 170.26C175.971 170.028 175.939 169.761 175.939 169.459C175.939 169.189 175.975 168.938 176.047 168.706C176.118 168.474 176.222 168.273 176.359 168.103C176.495 167.933 176.66 167.8 176.854 167.704C177.048 167.606 177.267 167.557 177.511 167.557C177.731 167.557 177.918 167.593 178.071 167.665C178.226 167.737 178.365 167.838 178.487 167.97V165.975H179.19ZM182.126 169.653C181.842 169.663 181.6 169.686 181.401 169.721C181.203 169.755 181.041 169.8 180.917 169.858C180.793 169.915 180.703 169.983 180.648 170.062C180.593 170.139 180.565 170.225 180.565 170.321C180.565 170.412 180.58 170.491 180.608 170.558C180.639 170.622 180.68 170.676 180.73 170.719C180.783 170.76 180.844 170.79 180.913 170.809C180.983 170.828 181.058 170.838 181.139 170.838C181.247 170.838 181.345 170.827 181.434 170.805C181.525 170.784 181.61 170.754 181.689 170.716C181.767 170.675 181.843 170.626 181.915 170.568C181.986 170.511 182.057 170.445 182.126 170.371V169.653ZM180.074 168.135C180.277 167.941 180.497 167.797 180.734 167.701C180.973 167.605 181.235 167.557 181.52 167.557C181.728 167.557 181.912 167.592 182.073 167.661C182.233 167.728 182.368 167.823 182.478 167.945C182.588 168.067 182.671 168.213 182.726 168.383C182.783 168.553 182.812 168.74 182.812 168.946V171.272H182.5C182.43 171.272 182.378 171.261 182.342 171.239C182.306 171.216 182.277 171.172 182.256 171.11L182.18 170.791C182.087 170.877 181.995 170.954 181.904 171.021C181.813 171.085 181.717 171.141 181.617 171.189C181.519 171.235 181.413 171.269 181.301 171.293C181.188 171.317 181.064 171.329 180.928 171.329C180.784 171.329 180.649 171.31 180.522 171.272C180.398 171.231 180.289 171.17 180.196 171.089C180.102 171.007 180.028 170.906 179.973 170.784C179.92 170.662 179.894 170.519 179.894 170.357C179.894 170.213 179.932 170.075 180.009 169.944C180.088 169.81 180.215 169.69 180.389 169.585C180.566 169.48 180.796 169.394 181.078 169.327C181.363 169.26 181.712 169.221 182.126 169.212V168.946C182.126 168.671 182.068 168.465 181.951 168.329C181.833 168.193 181.661 168.124 181.434 168.124C181.281 168.124 181.151 168.143 181.046 168.182C180.943 168.22 180.854 168.263 180.777 168.311C180.703 168.356 180.637 168.398 180.58 168.437C180.525 168.475 180.467 168.494 180.407 168.494C180.359 168.494 180.318 168.481 180.282 168.455C180.248 168.428 180.221 168.397 180.199 168.361L180.074 168.135ZM184.841 171.329C184.547 171.329 184.319 171.247 184.159 171.082C184.001 170.916 183.922 170.681 183.922 170.375V168.193H183.499C183.458 168.193 183.423 168.181 183.395 168.157C183.368 168.13 183.355 168.092 183.355 168.042V167.758L183.947 167.676L184.105 166.588C184.115 166.548 184.133 166.517 184.159 166.495C184.188 166.471 184.224 166.459 184.267 166.459H184.622V167.683H185.656V168.193H184.622V170.328C184.622 170.471 184.657 170.579 184.726 170.651C184.798 170.72 184.889 170.755 184.999 170.755C185.063 170.755 185.118 170.747 185.164 170.73C185.212 170.713 185.252 170.695 185.286 170.676C185.319 170.655 185.348 170.635 185.372 170.619C185.396 170.602 185.418 170.593 185.437 170.593C185.461 170.593 185.479 170.599 185.49 170.611C185.505 170.621 185.519 170.638 185.534 170.662L185.742 170.999C185.627 171.104 185.49 171.186 185.333 171.243C185.175 171.301 185.011 171.329 184.841 171.329ZM188.694 169.043C188.694 168.904 188.674 168.776 188.633 168.659C188.595 168.542 188.538 168.44 188.461 168.354C188.385 168.268 188.291 168.201 188.181 168.153C188.071 168.105 187.944 168.081 187.801 168.081C187.507 168.081 187.274 168.166 187.105 168.336C186.937 168.506 186.831 168.742 186.785 169.043H188.694ZM189.272 170.751C189.186 170.852 189.087 170.939 188.974 171.013C188.862 171.085 188.742 171.144 188.616 171.189C188.489 171.235 188.357 171.268 188.221 171.29C188.087 171.311 187.954 171.322 187.822 171.322C187.571 171.322 187.338 171.28 187.123 171.196C186.91 171.11 186.724 170.986 186.566 170.823C186.411 170.658 186.289 170.455 186.2 170.213C186.114 169.969 186.071 169.689 186.071 169.373C186.071 169.12 186.11 168.884 186.189 168.666C186.268 168.446 186.381 168.255 186.527 168.092C186.675 167.929 186.856 167.801 187.069 167.708C187.282 167.615 187.521 167.568 187.786 167.568C188.009 167.568 188.214 167.605 188.4 167.679C188.589 167.751 188.752 167.856 188.888 167.995C189.025 168.134 189.131 168.305 189.208 168.508C189.287 168.712 189.326 168.944 189.326 169.205C189.326 169.312 189.314 169.385 189.29 169.424C189.266 169.459 189.222 169.477 189.157 169.477H186.767C186.774 169.695 186.806 169.885 186.861 170.048C186.916 170.208 186.991 170.342 187.087 170.45C187.185 170.558 187.301 170.638 187.435 170.69C187.569 170.743 187.718 170.769 187.883 170.769C188.039 170.769 188.173 170.751 188.285 170.716C188.4 170.68 188.498 170.641 188.58 170.601C188.663 170.558 188.733 170.518 188.788 170.482C188.845 170.446 188.895 170.428 188.939 170.428C188.996 170.428 189.04 170.45 189.071 170.493L189.272 170.751Z" fill="white"/>
<path d="M160.944 186.075C160.944 186.866 160.858 187.551 160.685 188.131C160.517 188.712 160.284 189.193 159.985 189.576C159.691 189.955 159.342 190.236 158.938 190.421C158.538 190.606 158.107 190.699 157.645 190.699C157.182 190.699 156.749 190.606 156.345 190.421C155.946 190.236 155.599 189.955 155.304 189.576C155.01 189.193 154.779 188.712 154.61 188.131C154.442 187.551 154.358 186.866 154.358 186.075C154.358 185.284 154.442 184.599 154.61 184.018C154.779 183.434 155.01 182.952 155.304 182.574C155.599 182.191 155.946 181.907 156.345 181.722C156.749 181.537 157.182 181.445 157.645 181.445C158.107 181.445 158.538 181.537 158.938 181.722C159.342 181.907 159.691 182.191 159.985 182.574C160.284 182.952 160.517 183.434 160.685 184.018C160.858 184.599 160.944 185.284 160.944 186.075ZM159.67 186.075C159.67 185.394 159.613 184.824 159.499 184.365C159.39 183.907 159.241 183.539 159.052 183.261C158.867 182.98 158.652 182.78 158.408 182.662C158.164 182.544 157.91 182.485 157.645 182.485C157.38 182.485 157.125 182.544 156.881 182.662C156.638 182.78 156.421 182.98 156.232 183.261C156.047 183.539 155.899 183.907 155.79 184.365C155.681 184.824 155.626 185.394 155.626 186.075C155.626 186.756 155.681 187.326 155.79 187.784C155.899 188.243 156.047 188.611 156.232 188.888C156.421 189.166 156.638 189.364 156.881 189.481C157.125 189.599 157.38 189.658 157.645 189.658C157.91 189.658 158.164 189.599 158.408 189.481C158.652 189.364 158.867 189.166 159.052 188.888C159.241 188.611 159.39 188.243 159.499 187.784C159.613 187.326 159.67 186.756 159.67 186.075ZM164.957 189.677C165.247 189.677 165.51 189.631 165.746 189.538C165.981 189.441 166.183 189.311 166.351 189.147C166.52 188.983 166.65 188.788 166.742 188.56C166.835 188.333 166.881 188.087 166.881 187.822C166.881 187.532 166.835 187.273 166.742 187.046C166.654 186.815 166.528 186.62 166.364 186.46C166.204 186.3 166.011 186.178 165.784 186.094C165.556 186.01 165.304 185.968 165.027 185.968C164.736 185.968 164.476 186.018 164.244 186.119C164.013 186.216 163.815 186.348 163.651 186.516C163.487 186.681 163.361 186.874 163.273 187.097C163.185 187.32 163.14 187.553 163.14 187.797C163.14 188.075 163.18 188.329 163.26 188.56C163.34 188.792 163.458 188.989 163.613 189.153C163.769 189.317 163.958 189.446 164.181 189.538C164.408 189.631 164.667 189.677 164.957 189.677ZM164.377 184.914C164.305 185.007 164.234 185.097 164.162 185.185C164.095 185.27 164.03 185.354 163.967 185.438C164.169 185.307 164.392 185.206 164.635 185.135C164.884 185.063 165.151 185.028 165.437 185.028C165.794 185.028 166.135 185.087 166.459 185.204C166.782 185.322 167.066 185.495 167.31 185.722C167.558 185.949 167.754 186.231 167.897 186.567C168.04 186.903 168.111 187.29 168.111 187.728C168.111 188.144 168.036 188.535 167.884 188.901C167.733 189.263 167.518 189.578 167.241 189.847C166.967 190.112 166.639 190.323 166.257 190.478C165.874 190.63 165.449 190.705 164.982 190.705C164.52 190.705 164.101 190.632 163.727 190.484C163.357 190.337 163.039 190.129 162.774 189.86C162.514 189.587 162.312 189.259 162.169 188.876C162.026 188.489 161.954 188.06 161.954 187.589C161.954 187.185 162.041 186.76 162.213 186.315C162.39 185.865 162.667 185.385 163.046 184.876L165.31 181.842C165.374 181.758 165.462 181.688 165.575 181.634C165.689 181.575 165.819 181.546 165.967 181.546H167.064L164.377 184.914ZM170.226 190.705C170.167 190.865 170.074 190.983 169.948 191.059C169.822 191.138 169.692 191.178 169.557 191.178H169.04L172.799 181.741C172.858 181.598 172.942 181.489 173.052 181.413C173.165 181.333 173.296 181.293 173.443 181.293H173.966L170.226 190.705ZM180.591 189.437C180.726 189.437 180.831 189.477 180.907 189.557C180.982 189.633 181.02 189.734 181.02 189.86V190.604H174.939V190.182C174.939 190.098 174.956 190.009 174.989 189.917C175.023 189.82 175.08 189.734 175.16 189.658L178.024 186.788C178.263 186.548 178.48 186.317 178.674 186.094C178.867 185.871 179.031 185.65 179.166 185.431C179.3 185.209 179.403 184.981 179.475 184.75C179.55 184.519 179.588 184.275 179.588 184.018C179.588 183.766 179.548 183.545 179.468 183.356C179.388 183.163 179.279 183.003 179.14 182.877C179.002 182.75 178.838 182.656 178.648 182.593C178.459 182.53 178.255 182.498 178.036 182.498C177.818 182.498 177.616 182.53 177.431 182.593C177.25 182.656 177.088 182.744 176.945 182.858C176.802 182.971 176.682 183.106 176.585 183.261C176.489 183.417 176.419 183.585 176.377 183.766C176.318 183.926 176.243 184.033 176.15 184.088C176.062 184.142 175.931 184.155 175.759 184.126L175.116 184.012C175.174 183.592 175.29 183.221 175.463 182.902C175.635 182.582 175.852 182.315 176.112 182.101C176.373 181.882 176.672 181.718 177.008 181.609C177.349 181.499 177.715 181.445 178.106 181.445C178.501 181.445 178.865 181.503 179.197 181.621C179.534 181.735 179.824 181.901 180.068 182.12C180.312 182.338 180.503 182.605 180.642 182.921C180.781 183.232 180.85 183.585 180.85 183.981C180.85 184.317 180.799 184.63 180.698 184.92C180.602 185.206 180.467 185.48 180.295 185.741C180.127 186.001 179.929 186.256 179.702 186.504C179.479 186.748 179.241 186.996 178.989 187.248L176.693 189.595C176.869 189.549 177.046 189.511 177.223 189.481C177.403 189.452 177.574 189.437 177.734 189.437H180.591ZM188.137 189.664V190.604H183.242V189.664H185.159V183.728C185.159 183.539 185.166 183.343 185.178 183.142L183.639 184.447C183.58 184.494 183.521 184.523 183.463 184.536C183.404 184.548 183.347 184.55 183.292 184.542C183.242 184.534 183.195 184.517 183.153 184.492C183.116 184.462 183.084 184.433 183.059 184.403L182.674 183.867L185.387 181.527H186.39V189.664H188.137Z" fill="white"/>
</g>
</g>
<defs>
<filter id="filter0_ddd_1_208" x="0.440491" y="0.430969" width="368.425" height="254.172" filterUnits="userSpaceOnUse" color-interpolation-filters="sRGB">
<feFlood flood-opacity="0" result="BackgroundImageFix"/>
<feColorMatrix in="SourceAlpha" type="matrix" values="0 0 0 0 0 0 0 0 0 0 0 0 0 0 0 0 0 0 127 0" result="hardAlpha"/>
<feOffset/>
<feGaussianBlur stdDeviation="0.5"/>
<feColorMatrix type="matrix" values="0 0 0 0 0 0 0 0 0 0 0 0 0 0 0 0 0 0 0.04 0"/>
<feBlend mode="normal" in2="BackgroundImageFix" result="effect1_dropShadow_1_208"/>
<feColorMatrix in="SourceAlpha" type="matrix" values="0 0 0 0 0 0 0 0 0 0 0 0 0 0 0 0 0 0 127 0" result="hardAlpha"/>
<feOffset dy="2"/>
<feGaussianBlur stdDeviation="3"/>
<feColorMatrix type="matrix" values="0 0 0 0 0 0 0 0 0 0 0 0 0 0 0 0 0 0 0.04 0"/>
<feBlend mode="normal" in2="effect1_dropShadow_1_208" result="effect2_dropShadow_1_208"/>
<feColorMatrix in="SourceAlpha" type="matrix" values="0 0 0 0 0 0 0 0 0 0 0 0 0 0 0 0 0 0 127 0" result="hardAlpha"/>
<feOffset dy="16"/>
<feGaussianBlur stdDeviation="12"/>
<feColorMatrix type="matrix" values="0 0 0 0 0 0 0 0 0 0 0 0 0 0 0 0 0 0 0.06 0"/>
<feBlend mode="normal" in2="effect2_dropShadow_1_208" result="effect3_dropShadow_1_208"/>
<feBlend mode="normal" in="SourceGraphic" in2="effect3_dropShadow_1_208" result="shape"/>
</filter>
<filter id="filter1_ddd_1_208" x="0.440491" y="0.430969" width="368.425" height="254.172" filterUnits="userSpaceOnUse" color-interpolation-filters="sRGB">
<feFlood flood-opacity="0" result="BackgroundImageFix"/>
<feColorMatrix in="SourceAlpha" type="matrix" values="0 0 0 0 0 0 0 0 0 0 0 0 0 0 0 0 0 0 127 0" result="hardAlpha"/>
<feOffset/>
<feGaussianBlur stdDeviation="0.5"/>
<feColorMatrix type="matrix" values="0 0 0 0 0 0 0 0 0 0 0 0 0 0 0 0 0 0 0.04 0"/>
<feBlend mode="normal" in2="BackgroundImageFix" result="effect1_dropShadow_1_208"/>
<feColorMatrix in="SourceAlpha" type="matrix" values="0 0 0 0 0 0 0 0 0 0 0 0 0 0 0 0 0 0 127 0" result="hardAlpha"/>
<feOffset dy="2"/>
<feGaussianBlur stdDeviation="3"/>
<feColorMatrix type="matrix" values="0 0 0 0 0 0 0 0 0 0 0 0 0 0 0 0 0 0 0.04 0"/>
<feBlend mode="normal" in2="effect1_dropShadow_1_208" result="effect2_dropShadow_1_208"/>
<feColorMatrix in="SourceAlpha" type="matrix" values="0 0 0 0 0 0 0 0 0 0 0 0 0 0 0 0 0 0 127 0" result="hardAlpha"/>
<feOffset dy="16"/>
<feGaussianBlur stdDeviation="12"/>
<feColorMatrix type="matrix" values="0 0 0 0 0 0 0 0 0 0 0 0 0 0 0 0 0 0 0.06 0"/>
<feBlend mode="normal" in2="effect2_dropShadow_1_208" result="effect3_dropShadow_1_208"/>
<feBlend mode="normal" in="SourceGraphic" in2="effect3_dropShadow_1_208" result="shape"/>
</filter>
<linearGradient id="paint0_linear_1_208" x1="184.653" y1="8.43097" x2="184.653" y2="214.603" gradientUnits="userSpaceOnUse">
<stop stop-color="#197BBD"/>
<stop offset="1" stop-color="#3391D0"/>
</linearGradient>
<linearGradient id="paint1_linear_1_208" x1="184.653" y1="8.43097" x2="184.653" y2="214.603" gradientUnits="userSpaceOnUse">
<stop stop-color="#197BBD"/>
<stop offset="1" stop-color="#3391D0"/>
</linearGradient>
</defs>
</svg>
